<?xml version="1.0" encoding="UTF-8"?>
<svg version="1.1" xmlns="http://www.w3.org/2000/svg" width="504" height="495">
<path d="M0 0 C3.0625 2.1875 3.0625 2.1875 5 4 C5 4.66 5 5.32 5 6 C5.639375 6.268125 6.27875 6.53625 6.9375 6.8125 C9 8 9 8 10 11 C12.00016466 12.20882096 12.00016466 12.20882096 14 13 C14 13.66 14 14.32 14 15 C14.66 15 15.32 15 16 15 C17.83657913 17.44577123 19.55824794 19.89409657 21.25 22.4375 C21.74218018 23.1687207 22.23436035 23.89994141 22.74145508 24.65332031 C23.7195952 26.10755204 24.69531302 27.56341633 25.66845703 29.02099609 C26.77793262 30.66995266 27.91493164 32.30034876 29.05859375 33.92578125 C29.59613281 34.69277344 30.13367188 35.45976562 30.6875 36.25 C31.14511719 36.89453125 31.60273438 37.5390625 32.07421875 38.203125 C33 40 33 40 33 44 C33.66 44 34.32 44 35 44 C38.68590789 55.1040873 40.88990874 65.60022831 35.75 76.69921875 C34.56247674 78.84823101 33.33334829 80.93890817 32 83 C31.34 83 30.68 83 30 83 C29.690625 83.61875 29.38125 84.2375 29.0625 84.875 C28.375 86.25 27.6875 87.625 27 89 C26.34 89 25.68 89 25 89 C24.61328125 89.87398437 24.61328125 89.87398437 24.21875 90.765625 C22.90165983 93.1802903 21.44911616 94.81740177 19.5 96.75 C18.8915625 97.36359375 18.283125 97.9771875 17.65625 98.609375 C16 100 16 100 14 100 C13.690625 100.61875 13.38125 101.2375 13.0625 101.875 C12.375 103.25 11.6875 104.625 11 106 C9.35173611 116.09822432 13.88741325 125.96359838 19.6875 134.0625 C20.450625 135.031875 21.21375 136.00125 22 137 C22.45890625 137.77085937 22.9178125 138.54171875 23.390625 139.3359375 C25.7280463 143.20516402 28.46191107 146.75612268 31.16015625 150.37890625 C32.68314147 152.54859432 33.90771046 154.5946992 35 157 C35.66 157 36.32 157 37 157 C38.49877503 158.65483608 39.92488473 160.37590512 41.3125 162.125 C42.11558594 163.12660156 42.91867188 164.12820313 43.74609375 165.16015625 C44.48988281 166.09730469 45.23367187 167.03445313 46 168 C48.49955341 171.12291391 50.62871033 173.75247355 54 176 C54 176.66 54 177.32 54 178 C54.66 178 55.32 178 56 178 C56 178.66 56 179.32 56 180 C56.66 180 57.32 180 58 180 C58 180.66 58 181.32 58 182 C58.66 182 59.32 182 60 182 C63.0865664 184.82200356 65.77855553 187.89044599 68.5 191.0625 C71.11115529 194.09646818 73.85224775 196.51995277 77 199 C77 199.66 77 200.32 77 201 C77.54011719 201.22042969 78.08023438 201.44085938 78.63671875 201.66796875 C81.78251698 203.44105502 84.21935075 205.83591976 86.8125 208.3125 C90.15995218 211.46108858 93.43724177 214.47387887 97.25 217.0625 C98.61125 218.0215625 98.61125 218.0215625 100 219 C100 219.66 100 220.32 100 221 C100.66 221.20625 101.32 221.4125 102 221.625 C104.63054256 222.83066534 106.42774034 223.99903004 108.6875 225.75 C113.22966433 229.25713254 118.01895003 232.161681 123 235 C123.66902344 235.40605469 124.33804688 235.81210937 125.02734375 236.23046875 C131.33385031 239.80286613 138.05154606 240.61936532 145.1875 239.5 C150.38632438 236.72729366 154.73433137 232.89850294 158 228 C158.66 228 159.32 228 160 228 C160 227.34 160 226.68 160 226 C165.47619048 221 165.47619048 221 168 221 C168 220.34 168 219.68 168 219 C176.71663056 212.41845423 185.26872021 211.73619941 195.80908203 212.67089844 C199.88675995 213.28341346 203.30618077 214.80011148 206.87109375 216.80859375 C208.93434993 217.96326005 210.69291622 218.5427875 213 219 C213 219.66 213 220.32 213 221 C213.515625 221.0825 214.03125 221.165 214.5625 221.25 C218.04455732 222.32140225 220.87200885 224.13523605 224 226 C224 226.66 224 227.32 224 228 C224.763125 228.28875 225.52625 228.5775 226.3125 228.875 C229 230 229 230 232 232 C232 232.66 232 233.32 232 234 C233.175625 234.37125 233.175625 234.37125 234.375 234.75 C237.43941457 236.20924503 237.61725761 237.05014956 239 240 C239.66 240.33 240.32 240.66 241 241 C243.52845528 242.26422764 243.76422764 243.52845528 245 246 C245.59425781 246.24234375 246.18851562 246.4846875 246.80078125 246.734375 C249.93411082 248.53756999 251.38388034 251.22479179 253.1875 254.25 C253.88230469 255.36890625 254.57710938 256.4878125 255.29296875 257.640625 C257.7040103 262.38546649 258.14204117 266.68029997 258.125 271.9375 C258.12757813 272.73027344 258.13015625 273.52304687 258.1328125 274.33984375 C257.8087868 280.82988801 256.73356586 285.11182154 253.1875 290.625 C252.50042969 291.71039063 251.81335938 292.79578125 251.10546875 293.9140625 C249.17853773 296.73832133 247.26859138 299.44129525 245 302 C244.34 302 243.68 302 243 302 C243 302.66 243 303.32 243 304 C242.34 304 241.68 304 241 304 C240.7421875 304.58265625 240.484375 305.1653125 240.21875 305.765625 C238.90165983 308.1802903 237.44911616 309.81740177 235.5 311.75 C234.8915625 312.36359375 234.283125 312.9771875 233.65625 313.609375 C232 315 232 315 230 315 C230 315.66 230 316.32 230 317 C229.34 317 228.68 317 228 317 C228 317.66 228 318.32 228 319 C227.34 319 226.68 319 226 319 C226 319.66 226 320.32 226 321 C225.34 321 224.68 321 224 321 C224 321.66 224 322.32 224 323 C221 325 221 325 218 325 C218 325.66 218 326.32 218 327 C198.04280876 335.48180628 171.53627806 330.55219801 151.95703125 322.76171875 C148.35677561 321.36042164 144.67178085 320.19842847 141 319 C141 318.34 141 317.68 141 317 C140.00871094 316.91363281 139.01742187 316.82726562 137.99609375 316.73828125 C133.54881101 316.09976014 129.99649173 314.27778876 126.0625 312.1875 C125.39798828 311.84396484 124.73347656 311.50042969 124.04882812 311.14648438 C122.70522428 310.45187637 121.36358286 309.7534593 120.02392578 309.05126953 C117.98381418 307.99159274 115.93049301 306.96302885 113.87109375 305.94140625 C110.53953282 304.2827628 107.2613117 302.54372143 104 300.75 C103.05125 300.22921875 102.1025 299.7084375 101.125 299.171875 C100.42375 298.78515625 99.7225 298.3984375 99 298 C99 297.34 99 296.68 99 296 C98.43410156 295.88785156 97.86820313 295.77570313 97.28515625 295.66015625 C81.70361082 291.1588209 66.56804236 275.36697359 53.90234375 265.47265625 C52.54686478 264.42334296 51.15993072 263.41414299 49.75390625 262.43359375 C49.17511719 261.96050781 48.59632813 261.48742187 48 261 C48 260.34 48 259.68 48 259 C46.68 258.67 45.36 258.34 44 258 C44 257.34 44 256.68 44 256 C43.34 256 42.68 256 42 256 C42 255.34 42 254.68 42 254 C41.34 254 40.68 254 40 254 C40 253.34 40 252.68 40 252 C39.443125 251.7525 38.88625 251.505 38.3125 251.25 C35.57589087 249.77075182 33.32349131 248.06532561 31 246 C31 245.34 31 244.68 31 244 C30.15066895 243.63745117 30.15066895 243.63745117 29.28417969 243.26757812 C26.5477726 241.74904183 24.66930662 239.92848119 22.453125 237.71875 C21.60878906 236.87699219 20.76445313 236.03523437 19.89453125 235.16796875 C19.02183594 234.28753906 18.14914063 233.40710938 17.25 232.5 C16.36183594 231.61957031 15.47367187 230.73914063 14.55859375 229.83203125 C13.71941406 228.99027344 12.88023438 228.14851562 12.015625 227.28125 C11.24508789 226.50845703 10.47455078 225.73566406 9.68066406 224.93945312 C8 223 8 223 8 221 C7.11054688 220.61328125 7.11054688 220.61328125 6.203125 220.21875 C3.82339035 218.90230105 2.49021208 217.57419218 0.75 215.5 C0.22921875 214.8915625 -0.2915625 214.283125 -0.828125 213.65625 C-2 212 -2 212 -2 210 C-2.66 210 -3.32 210 -4 210 C-4 209.34 -4 208.68 -4 208 C-4.66 208 -5.32 208 -6 208 C-7.7265625 206.1015625 -7.7265625 206.1015625 -9.625 203.625 C-10.57246094 202.40683594 -10.57246094 202.40683594 -11.5390625 201.1640625 C-13 199 -13 199 -13 197 C-13.66 197 -14.32 197 -15 197 C-16.5078125 195.3203125 -16.5078125 195.3203125 -18.125 193.125 C-18.66382813 192.40570313 -19.20265625 191.68640625 -19.7578125 190.9453125 C-21 189 -21 189 -21 187 C-21.66 187 -22.32 187 -23 187 C-24.40234375 185.42578125 -24.40234375 185.42578125 -25.9375 183.3125 C-26.44152344 182.62800781 -26.94554687 181.94351563 -27.46484375 181.23828125 C-29.08194124 178.88052843 -30.52928462 176.4511923 -32 174 C-33.0694957 172.44870178 -34.15335602 170.90722687 -35.25 169.375 C-37.87427875 165.64281679 -40.44291356 161.88280986 -42.9375 158.0625 C-43.52402344 157.16660156 -44.11054687 156.27070313 -44.71484375 155.34765625 C-46 153 -46 153 -46 150 C-46.66 150 -47.32 150 -48 150 C-78.5329835 92.25299917 -78.5329835 92.25299917 -79 66 C-79.01901367 65.25572754 -79.03802734 64.51145508 -79.05761719 63.74462891 C-79.11919804 61.12138546 -79.15761629 58.49878945 -79.1875 55.875 C-79.20079346 55.03912354 -79.21408691 54.20324707 -79.2277832 53.34204102 C-79.24141397 40.78067358 -75.68855771 31.09743101 -67 22 C-65.33471933 20.33194848 -63.66789441 18.66543801 -62 17 C-60.65421875 15.60201172 -60.65421875 15.60201172 -59.28125 14.17578125 C-58.3634375 13.23089844 -57.445625 12.28601563 -56.5 11.3125 C-56.03980469 10.82716797 -55.57960938 10.34183594 -55.10546875 9.84179688 C-52.27779526 6.95438381 -49.87036258 5.19897102 -46 4 C-46 3.34 -46 2.68 -46 2 C-32.10948055 -10.04516058 -14.87385806 -9.4163398 0 0 Z " fill="#030303" transform="translate(97,132)"/>
<path d="M0 0 C4.49491588 -0.08019734 8.98169732 -0.07804404 13.4765625 0.00439453 C14.9360637 0.02882671 16.39576842 0.04340745 17.85546875 0.04736328 C44.23043095 0.16627655 73.48836373 6.84756138 96.44335938 20.16650391 C99.62942365 22.09403182 99.62942365 22.09403182 102.96289062 23.42041016 C112.21129798 27.32448093 120.88613135 32.76238101 128.69335938 39.04150391 C129.81986535 39.92311728 130.94758795 40.80317715 132.07617188 41.68212891 C135.62766815 44.4532453 139.17208115 47.23206058 142.69335938 50.04150391 C143.27569336 50.4976709 143.85802734 50.95383789 144.45800781 51.42382812 C145.90763409 52.58395426 147.30576606 53.80785331 148.69335938 55.04150391 C148.69335938 55.70150391 148.69335938 56.36150391 148.69335938 57.04150391 C150.01335937 57.70150391 151.33335937 58.36150391 152.69335938 59.04150391 C152.69335938 59.70150391 152.69335938 60.36150391 152.69335938 61.04150391 C153.27085937 61.28900391 153.84835937 61.53650391 154.44335938 61.79150391 C157.02275917 63.22450379 158.75457529 64.82575067 160.69335938 67.04150391 C160.69335938 67.70150391 160.69335938 68.36150391 160.69335938 69.04150391 C161.35335938 69.04150391 162.01335937 69.04150391 162.69335938 69.04150391 C162.69335938 69.70150391 162.69335938 70.36150391 162.69335938 71.04150391 C163.35335938 71.04150391 164.01335937 71.04150391 164.69335938 71.04150391 C165.98242188 72.50244141 165.98242188 72.50244141 167.31835938 74.41650391 C167.764375 75.04298828 168.21039063 75.66947266 168.66992188 76.31494141 C169.69335938 78.04150391 169.69335938 78.04150391 169.69335938 80.04150391 C170.35335938 80.04150391 171.01335937 80.04150391 171.69335938 80.04150391 C175.69335938 84.39444508 175.69335938 84.39444508 175.69335938 88.04150391 C176.35335938 88.04150391 177.01335937 88.04150391 177.69335938 88.04150391 C179.77412603 90.5281235 181.40951351 93.3606766 183.13085938 96.10400391 C183.92459961 97.36567383 183.92459961 97.36567383 184.734375 98.65283203 C192.4049649 111.13920251 198.86154246 124.46501292 203.72314453 138.29272461 C204.37172432 140.13025853 205.04350689 141.95976128 205.73779297 143.78051758 C208.18396757 150.21935832 209.94562424 156.60720459 211.31835938 163.35400391 C211.53000732 164.39161865 211.74165527 165.4292334 211.9597168 166.49829102 C219.03546943 202.71305451 218.73963088 245.81954254 203.69335938 280.04150391 C202.91669787 282.14352634 202.14606015 284.24778237 201.38085938 286.35400391 C198.62474371 293.51644869 195.23378974 300.30220637 191.69873047 307.10449219 C190.74516997 308.94168232 189.80649419 310.78585276 188.86914062 312.63134766 C185.74433663 318.6492286 182.44750654 324.04218104 178.07617188 329.23681641 C176.49262891 331.10037748 176.49262891 331.10037748 175.69335938 334.04150391 C175.03335937 334.04150391 174.37335938 334.04150391 173.69335938 334.04150391 C173.69335938 334.70150391 173.69335938 335.36150391 173.69335938 336.04150391 C173.03335937 336.04150391 172.37335938 336.04150391 171.69335938 336.04150391 C171.45230469 336.76337891 171.21125 337.48525391 170.96289062 338.22900391 C169.51789564 341.43022357 167.76824441 343.47356034 165.38085938 346.04150391 C164.57648438 346.91162109 163.77210938 347.78173828 162.94335938 348.67822266 C160.56691305 351.17431645 158.13023889 353.60462439 155.69335938 356.04150391 C155.09523438 356.82525391 154.49710937 357.60900391 153.88085938 358.41650391 C150.8371446 362.06896163 147.32622419 364.98841718 143.69335938 368.04150391 C142.92378906 368.71052734 142.15421875 369.37955078 141.36132812 370.06884766 C133.00239788 377.16944431 123.90265029 383.11129445 114.69335938 389.04150391 C113.94747559 389.52683594 113.2015918 390.01216797 112.43310547 390.51220703 C111.71848145 390.97046875 111.00385742 391.42873047 110.26757812 391.90087891 C109.62780029 392.31305664 108.98802246 392.72523438 108.32885742 393.14990234 C106.69335937 394.04150391 106.69335937 394.04150391 104.69335938 394.04150391 C104.74556641 392.33607422 104.74556641 392.33607422 104.79882812 390.59619141 C104.9859493 381.58498429 104.58013519 373.61578096 102.25195312 364.86181641 C101.68394013 361.99394661 101.46301972 360.66844532 102.69335938 358.04150391 C104.68945312 356.11962891 104.68945312 356.11962891 107.13085938 354.29150391 C107.93394531 353.67791016 108.73703125 353.06431641 109.56445312 352.43212891 C111.69335938 351.04150391 111.69335938 351.04150391 113.69335938 351.04150391 C113.69335938 350.38150391 113.69335938 349.72150391 113.69335938 349.04150391 C115.37304687 347.53369141 115.37304687 347.53369141 117.56835938 345.91650391 C118.28765625 345.37767578 119.00695312 344.83884766 119.74804688 344.28369141 C121.69335937 343.04150391 121.69335937 343.04150391 123.69335938 343.04150391 C123.69335938 342.38150391 123.69335938 341.72150391 123.69335938 341.04150391 C124.35335938 341.04150391 125.01335937 341.04150391 125.69335938 341.04150391 C125.69335938 340.38150391 125.69335938 339.72150391 125.69335938 339.04150391 C128.12575283 336.40061958 130.63322061 334.08934156 133.44335938 331.85400391 C135.76823325 330.23841313 135.76823325 330.23841313 136.69335938 328.04150391 C137.35335938 328.04150391 138.01335937 328.04150391 138.69335938 328.04150391 C138.69335938 327.38150391 138.69335938 326.72150391 138.69335938 326.04150391 C139.35335938 326.04150391 140.01335937 326.04150391 140.69335938 326.04150391 C140.93699219 325.49623047 141.180625 324.95095703 141.43164062 324.38916016 C142.9812158 321.50589489 144.87781582 319.06813594 146.88085938 316.47900391 C151.16284958 310.86455149 154.98985117 305.05521018 158.69335938 299.04150391 C159.18320312 298.31318359 159.67304688 297.58486328 160.17773438 296.83447266 C165.7595255 288.26672337 169.07311885 278.55193614 172.69335938 269.04150391 C172.96801025 268.33517822 173.24266113 267.62885254 173.52563477 266.90112305 C177.19721192 257.35825223 179.6418711 247.39214751 181.29882812 237.31103516 C181.66811784 235.1867052 182.14248368 233.12525109 182.69335938 231.04150391 C181.66082031 230.67798828 181.66082031 230.67798828 180.60742188 230.30712891 C177.17366102 228.81579041 174.16946944 226.8613405 171.06835938 224.79150391 C165.85167969 221.36668215 160.55859435 218.25684708 155.04882812 215.31884766 C152.09933128 213.71936927 149.36972773 212.06686374 146.69335938 210.04150391 C146.69335938 209.38150391 146.69335938 208.72150391 146.69335938 208.04150391 C147.5415625 207.56841797 148.38976562 207.09533203 149.26367188 206.60791016 C156.29288393 202.65549503 163.17286574 198.5551349 169.89697266 194.1003418 C179.11211256 188.04150391 179.11211256 188.04150391 182.69335938 188.04150391 C174.41075632 148.67876531 161.0740795 112.62225801 131.05664062 84.52978516 C129.69335938 83.04150391 129.69335938 83.04150391 129.69335938 81.04150391 C129.03335937 81.04150391 128.37335938 81.04150391 127.69335938 81.04150391 C127.69335938 80.38150391 127.69335938 79.72150391 127.69335938 79.04150391 C127.03335937 79.04150391 126.37335938 79.04150391 125.69335938 79.04150391 C125.69335938 78.38150391 125.69335938 77.72150391 125.69335938 77.04150391 C125.16613281 76.81720703 124.63890625 76.59291016 124.09570312 76.36181641 C120.85194196 74.57906637 118.11215674 72.24795811 115.25585938 69.91650391 C108.72150675 64.6963609 101.9697446 60.18488313 94.69335938 56.04150391 C94.09378418 55.69990234 93.49420898 55.35830078 92.87646484 55.00634766 C72.82695962 43.68378258 50.44067816 36.50807644 27.69335938 33.04150391 C27.41621094 33.76595703 27.1390625 34.49041016 26.85351562 35.23681641 C22.66527864 45.36191457 16.36256315 54.6900173 10.69335938 64.04150391 C9.6923847 65.70758538 8.69196042 67.37399867 7.69335938 69.04150391 C3.5446576 67.65860331 3.12436568 65.66565346 1.06835938 61.85400391 C-2.13855143 56.01417012 -5.56778409 50.39059973 -9.24853516 44.83764648 C-11.54180726 41.347862 -13.50781361 37.80939393 -15.30664062 34.04150391 C-38.51870147 36.10955234 -60.52221584 44.26476906 -80.76513672 55.60351562 C-85.12403869 58.04150391 -85.12403869 58.04150391 -87.30664062 58.04150391 C-87.30664062 58.70150391 -87.30664062 59.36150391 -87.30664062 60.04150391 C-89.17773438 61.30322266 -89.17773438 61.30322266 -91.74414062 62.72900391 C-96.33958842 65.37645249 -100.40741028 68.34963887 -104.49414062 71.72119141 C-106.30664062 73.04150391 -106.30664062 73.04150391 -108.30664062 73.04150391 C-108.96664062 74.36150391 -109.62664062 75.68150391 -110.30664062 77.04150391 C-110.96664062 77.04150391 -111.62664062 77.04150391 -112.30664062 77.04150391 C-112.30664062 77.70150391 -112.30664062 78.36150391 -112.30664062 79.04150391 C-113.74023438 80.41650391 -113.74023438 80.41650391 -115.74414062 82.04150391 C-123.77128589 88.89566844 -130.18047707 96.97919666 -136.36132812 105.47509766 C-137.91379209 107.52322783 -139.42919289 109.29984642 -141.30664062 111.04150391 C-143.30664062 109.66650391 -143.30664062 109.66650391 -145.30664062 108.04150391 C-145.30664062 107.38150391 -145.30664062 106.72150391 -145.30664062 106.04150391 C-146.62664062 105.38150391 -147.94664062 104.72150391 -149.30664062 104.04150391 C-149.30664062 103.38150391 -149.30664062 102.72150391 -149.30664062 102.04150391 C-149.96664062 102.04150391 -150.62664062 102.04150391 -151.30664062 102.04150391 C-151.30664062 101.38150391 -151.30664062 100.72150391 -151.30664062 100.04150391 C-152.62664062 99.38150391 -153.94664062 98.72150391 -155.30664062 98.04150391 C-155.30664062 97.38150391 -155.30664062 96.72150391 -155.30664062 96.04150391 C-156.38945312 95.67025391 -156.38945312 95.67025391 -157.49414062 95.29150391 C-160.58270644 93.91880799 -162.8167548 92.31797095 -165.30664062 90.04150391 C-165.30664062 89.38150391 -165.30664062 88.72150391 -165.30664062 88.04150391 C-164.64664063 88.04150391 -163.98664063 88.04150391 -163.30664062 88.04150391 C-163.01789063 87.27837891 -162.72914063 86.51525391 -162.43164062 85.72900391 C-161.30664062 83.04150391 -161.30664062 83.04150391 -159.30664062 80.04150391 C-158.64664063 80.04150391 -157.98664063 80.04150391 -157.30664062 80.04150391 C-157.05914062 79.48462891 -156.81164062 78.92775391 -156.55664062 78.35400391 C-155.07739244 75.61739477 -153.37196623 73.36499521 -151.30664062 71.04150391 C-150.64664063 71.04150391 -149.98664063 71.04150391 -149.30664062 71.04150391 C-149.07976562 70.50525391 -148.85289062 69.96900391 -148.61914062 69.41650391 C-146.02965778 64.73077305 -142.28575444 60.60898526 -138.30664062 57.04150391 C-137.64664063 57.04150391 -136.98664063 57.04150391 -136.30664062 57.04150391 C-136.30664062 56.38150391 -136.30664062 55.72150391 -136.30664062 55.04150391 C-134.32360596 53.30902216 -132.33446608 51.69871369 -130.24414062 50.10400391 C-129.6223291 49.62398926 -129.00051758 49.14397461 -128.35986328 48.64941406 C-126.34886365 47.10438389 -124.3289318 45.57171856 -122.30664062 44.04150391 C-121.62327637 43.52152832 -120.93991211 43.00155273 -120.23583984 42.46582031 C-118.22446045 40.94022602 -116.20504654 39.42610056 -114.18164062 37.91650391 C-113.24179321 37.20699585 -113.24179321 37.20699585 -112.28295898 36.4831543 C-109.3105657 34.2919281 -106.91902892 32.7788659 -103.30664062 32.04150391 C-103.30664062 31.38150391 -103.30664062 30.72150391 -103.30664062 30.04150391 C-84.82325394 19.77019909 -65.95421677 10.88169946 -45.30664062 6.04150391 C-44.42008789 5.82123535 -43.53353516 5.6009668 -42.62011719 5.37402344 C-28.27999312 1.81737649 -14.72940154 0.26502945 0 0 Z " fill="#080808" transform="translate(271.306640625,22.95849609375)"/>
<path d="M0 0 C6.78451877 5.60460246 12.02425779 14.21832014 13 23 C13.66002905 34.92052464 10.63244938 44.05132593 4 54 C3.34 54 2.68 54 2 54 C2 54.66 2 55.32 2 56 C1.34 56 0.68 56 0 56 C-0.226875 56.61875 -0.45375 57.2375 -0.6875 57.875 C-2.37929835 60.61410209 -3.99244161 61.05024472 -7 62 C-7 62.66 -7 63.32 -7 64 C-8.99716133 65.3604723 -10.97853919 66.59881756 -13.0625 67.8125 C-16.87088128 70.08110309 -20.62486083 72.35455091 -24.1875 75 C-27 77 -27 77 -29 77 C-29.66 78.32 -30.32 79.64 -31 81 C-31.66 81 -32.32 81 -33 81 C-33.495 82.98 -33.495 82.98 -34 85 C-18.16 85.33 -2.32 85.66 14 86 C14 94.25 14 102.5 14 111 C-12.73 111 -39.46 111 -67 111 C-70.02277797 95.88611015 -67.43252879 83.3687399 -60 70 C-59.34 69.01 -58.68 68.02 -58 67 C-57.34 67 -56.68 67 -56 67 C-55.34 65.68 -54.68 64.36 -54 63 C-53.34 63 -52.68 63 -52 63 C-51.79503906 62.44054687 -51.59007812 61.88109375 -51.37890625 61.3046875 C-49.49188356 58.15074023 -46.8452229 56.27465273 -43.9375 54.125 C-43.35403809 53.68446289 -42.77057617 53.24392578 -42.16943359 52.79003906 C-38.88906104 50.33359502 -35.55750704 47.99091133 -32.125 45.75 C-24.90669934 41.05389378 -24.90669934 41.05389378 -19.5 34.5 C-18.69336934 30.46684671 -19.38406941 27.42433948 -21 23.6875 C-24.26203688 20.93515638 -27.8323138 20.91289402 -32 21 C-34.78459163 21.46409861 -37.29218258 22.16303825 -40 23 C-40 23.66 -40 24.32 -40 25 C-40.66 25 -41.32 25 -42 25 C-42 25.66 -42 26.32 -42 27 C-42.66 27 -43.32 27 -44 27 C-44.99 29.475 -44.99 29.475 -46 32 C-50.56174309 30.70526998 -53.75495563 28.95199544 -57.5 26.0625 C-61.1929185 23.2238342 -64.77863193 20.98031826 -69 19 C-68.36567062 15.83548038 -67.26817072 13.48312221 -65.5625 10.75 C-65.13066406 10.04359375 -64.69882813 9.3371875 -64.25390625 8.609375 C-63.84011719 8.07828125 -63.42632812 7.5471875 -63 7 C-62.34 7 -61.68 7 -61 7 C-60.67 6.01 -60.34 5.02 -60 4 C-44.05871698 -11.24995187 -17.8321729 -11.93773177 0 0 Z " fill="#080808" transform="translate(252,167)"/>
<path d="M0 0 C1.47583955 0.0001591 2.95168467 0.00585225 4.42749023 0.01586914 C5.20293686 0.01728409 5.97838348 0.01869904 6.77732849 0.02015686 C9.26361893 0.02577194 11.74982059 0.03832693 14.23608398 0.05102539 C15.91772331 0.05603845 17.59936405 0.06060169 19.28100586 0.06469727 C23.41189965 0.07574626 27.54272674 0.09302094 31.67358398 0.11352539 C32.74977763 3.34210633 32.79410895 5.65891818 32.78710938 9.05371094 C32.78699608 10.88526985 32.78699608 10.88526985 32.78688049 12.75382996 C32.78171921 14.07264664 32.77655792 15.39146332 32.77124023 16.75024414 C32.76937479 18.11359098 32.76795148 19.4769385 32.76695251 20.84028625 C32.76313731 24.4258103 32.75331553 28.01129374 32.74224854 31.59680176 C32.73201299 35.25666759 32.7274503 38.91653999 32.72241211 42.57641602 C32.71169237 49.75547097 32.69462791 56.93449249 32.67358398 64.11352539 C33.27686523 64.10192383 33.88014648 64.09032227 34.50170898 64.07836914 C35.70053711 64.06483398 35.70053711 64.06483398 36.92358398 64.05102539 C37.71249023 64.03942383 38.50139648 64.02782227 39.31420898 64.01586914 C41.67358398 64.11352539 41.67358398 64.11352539 45.67358398 65.11352539 C45.67358398 73.03352539 45.67358398 80.95352539 45.67358398 89.11352539 C41.38358398 89.11352539 37.09358398 89.11352539 32.67358398 89.11352539 C32.68518555 90.96719727 32.69678711 92.82086914 32.70874023 94.73071289 C32.71811725 97.14998272 32.72721754 99.56925364 32.73608398 101.98852539 C32.74446289 103.2118457 32.7528418 104.43516602 32.76147461 105.69555664 C32.76469727 106.8621582 32.76791992 108.02875977 32.77124023 109.23071289 C32.77647705 110.30949707 32.78171387 111.38828125 32.78710938 112.49975586 C32.67358398 115.11352539 32.67358398 115.11352539 31.67358398 117.11352539 C22.43358398 117.11352539 13.19358398 117.11352539 3.67358398 117.11352539 C0.72024313 108.25350282 2.67358398 98.45280921 2.67358398 89.11352539 C-14.15641602 89.11352539 -30.98641602 89.11352539 -48.32641602 89.11352539 C-48.32641602 67.31146302 -48.32641602 67.31146302 -41.70141602 59.11352539 C-40.45463938 57.45028891 -39.2124379 55.78361295 -37.97485352 54.11352539 C-37.05567139 52.89874512 -37.05567139 52.89874512 -36.11791992 51.65942383 C-33.63933852 48.13712254 -31.66613002 44.41005481 -29.66186523 40.60375977 C-28.01633254 37.53530758 -26.1782675 34.72875953 -24.20141602 31.86352539 C-21.37102041 27.69926519 -18.73680199 23.53256634 -16.32641602 19.11352539 C-15.66641602 19.11352539 -15.00641602 19.11352539 -14.32641602 19.11352539 C-14.08020508 18.42774414 -13.83399414 17.74196289 -13.58032227 17.03540039 C-12.10928181 13.60755535 -10.24211892 10.51307921 -8.26391602 7.36352539 C-7.71767578 6.47987305 -7.71767578 6.47987305 -7.16040039 5.57836914 C-3.77159474 0.12871865 -3.77159474 0.12871865 0 0 Z M2.67358398 31.11352539 C2.15795898 32.22727539 1.64233398 33.34102539 1.11108398 34.48852539 C-0.99669298 38.70407932 -3.56741389 42.41959525 -6.31079102 46.24243164 C-8.71504679 49.66709829 -10.99910519 53.15815951 -13.26391602 56.67602539 C-13.86659302 57.60632568 -13.86659302 57.60632568 -14.48144531 58.55541992 C-16.46086738 61.14088188 -16.46086738 61.14088188 -17.32641602 64.11352539 C-10.39641602 64.11352539 -3.46641602 64.11352539 3.67358398 64.11352539 C3.67358398 53.22352539 3.67358398 42.33352539 3.67358398 31.11352539 C3.34358398 31.11352539 3.01358398 31.11352539 2.67358398 31.11352539 Z " fill="#080808" transform="translate(325.326416015625,160.886474609375)"/>
<path d="M0 0 C0.66 0.33 1.32 0.66 2 1 C-3.61 6.61 -9.22 12.22 -15 18 C-15.66 17.67 -16.32 17.34 -17 17 C-11.6749489 10.87372593 -6.27309565 5.16205691 0 0 Z " fill="#5A5A5A" transform="translate(49,136)"/>
<path d="M0 0 C0 3 0 3 -1.8984375 5.26171875 C-2.71570313 6.06222656 -3.53296875 6.86273438 -4.375 7.6875 C-5.18710938 8.49574219 -5.99921875 9.30398437 -6.8359375 10.13671875 C-9 12 -9 12 -11 12 C-11 11.34 -11 10.68 -11 10 C-10.34 10 -9.68 10 -9 10 C-8.34 8.68 -7.68 7.36 -7 6 C-6.34 6 -5.68 6 -5 6 C-4.731875 5.38125 -4.46375 4.7625 -4.1875 4.125 C-3 2 -3 2 0 0 Z " fill="#4C4C4C" transform="translate(205,224)"/>
<path d="M0 0 C0 3 0 3 -2.5 5.6875 C-3.325 6.450625 -4.15 7.21375 -5 8 C-5.66 7.67 -6.32 7.34 -7 7 C-6.34 6.01 -5.68 5.02 -5 4 C-4.34 4 -3.68 4 -3 4 C-2.67 3.01 -2.34 2.02 -2 1 C-1.34 0.67 -0.68 0.34 0 0 Z " fill="#666666" transform="translate(194,170)"/>
</svg>
