<?xml version="1.0" encoding="UTF-8"?>
<svg version="1.1" xmlns="http://www.w3.org/2000/svg" width="500" height="500">
<path d="M0 0 C1.99491387 -0.00962796 3.9896862 -0.04079125 5.984375 -0.07226562 C13.01115305 -0.10071412 18.53502651 0.16377614 24.8984375 3.24023438 C24.8984375 3.90023437 24.8984375 4.56023437 24.8984375 5.24023438 C25.4759375 5.46710938 26.0534375 5.69398438 26.6484375 5.92773438 C31.47147903 8.74117527 33.52730472 13.3770612 35.8984375 18.24023438 C45.27126888 17.94252122 54.53011904 17.52925534 63.80639648 16.09570312 C74.70462112 14.41920384 85.39413696 13.93510125 96.3984375 13.92773438 C97.46375702 13.92276443 97.46375702 13.92276443 98.55059814 13.91769409 C111.94942699 13.88064646 124.94975947 15.16566276 137.9609375 18.55273438 C138.72986328 18.74029297 139.49878906 18.92785156 140.29101562 19.12109375 C152.69666442 22.27060948 164.50439112 27.21869372 176.2734375 32.17773438 C184.20342715 35.49961112 192.13124491 38.79584708 200.2109375 41.74023438 C204.61940418 43.35228562 208.76856035 45.07967421 212.9140625 47.26757812 C216.3991425 48.97581616 220.05100997 50.25772083 223.6796875 51.62695312 C237.28902946 56.79182113 250.81240278 62.23775044 264.1484375 68.07226562 C266.56469692 69.09848944 268.9824631 70.00414676 271.4609375 70.86523438 C278.19273891 73.55795494 281.67625369 77.90555813 284.8984375 84.24023438 C284.8984375 84.90023437 284.8984375 85.56023437 284.8984375 86.24023438 C287.23323296 85.64133502 289.56614722 85.03625413 291.8984375 84.42773438 C292.54683594 84.26208984 293.19523437 84.09644531 293.86328125 83.92578125 C297.89474212 82.86802172 301.72207789 81.55630669 305.61572266 80.05493164 C310.51955836 78.30476054 315.57207379 77.0097032 320.5859375 75.61523438 C330.8476942 72.72781838 341.04077569 69.68509469 351.2109375 66.49023438 C359.55828531 63.86925593 367.87999905 61.35212935 376.36328125 59.20898438 C379.98236313 58.21723597 383.51842696 57.06538737 387.07788086 55.88134766 C398.547419 52.09203466 409.35192092 48.85574769 420.8984375 54.24023438 C428.06256216 58.56597747 432.90894112 63.62107325 435.359375 71.71289062 C437.33599474 80.98008608 435.60571275 88.22676169 431.2109375 96.36523438 C421.97644505 107.84595471 405.4456419 113.04857458 392.33203125 118.88183594 C385.05426908 122.13223432 377.92956652 125.63699898 370.82958984 129.25634766 C367.54590549 130.92932464 364.25474509 132.58729059 360.9609375 134.24023438 C360.30319336 134.57031494 359.64544922 134.90039551 358.96777344 135.24047852 C353.43339029 138.00294792 347.84156872 140.63356942 342.23657227 143.24902344 C337.5866314 145.42592843 332.98127438 147.67572412 328.3984375 149.99023438 C312.93144019 157.78393857 297.26299445 165.17546503 281.56848145 172.49819946 C279.74891607 173.34750734 277.9305964 174.19948241 276.11230469 175.05151367 C274.99629883 175.57011963 273.88029297 176.08872559 272.73046875 176.62304688 C271.74796143 177.0808252 270.7654541 177.53860352 269.75317383 178.01025391 C245.85190407 188.30826101 221.67515936 182.70048943 198.59765625 173.52148438 C197.68161621 173.15410156 196.76557617 172.78671875 195.82177734 172.40820312 C190.46764997 170.26905619 185.0895174 168.19197252 179.7109375 166.11523438 C178.61072266 165.68952148 177.51050781 165.26380859 176.37695312 164.82519531 C169.20351327 162.06930961 161.99144263 159.5189314 154.68334961 157.14599609 C150.19860518 155.68828386 145.82485776 154.08861835 141.46875 152.28710938 C131.52110939 148.23548676 121.36399961 144.66591477 111.2734375 140.99023438 C110.33725586 140.64895508 109.40107422 140.30767578 108.43652344 139.95605469 C105.92612334 139.04425414 103.412585 138.14163499 100.8984375 137.24023438 C99.90070313 136.87414062 98.90296875 136.50804687 97.875 136.13085938 C88.05002128 133.19110196 78.73891322 132.95805938 68.55566406 133.03442383 C66.00836303 133.05284338 63.46142366 133.05493187 60.9140625 133.0546875 C59.28645519 133.05959819 57.65885034 133.06542453 56.03125 133.07226562 C55.27393585 133.07337845 54.5166217 133.07449127 53.73635864 133.07563782 C50.30631029 133.10653806 47.18778832 133.23732326 43.8984375 134.24023438 C42.48308972 134.30480316 41.06506061 134.32634476 39.6484375 134.30273438 C37.7921875 134.27179688 37.7921875 134.27179688 35.8984375 134.24023438 C35.8159375 135.08585938 35.7334375 135.93148437 35.6484375 136.80273438 C34.74109897 140.96136928 33.13302477 143.63606136 30.8984375 147.24023438 C30.2384375 147.24023438 29.5784375 147.24023438 28.8984375 147.24023438 C28.5684375 148.23023438 28.2384375 149.22023438 27.8984375 150.24023438 C19.40447866 156.07983108 10.59775183 156.55619879 0.5234375 156.42773438 C-0.95189453 156.42676758 -0.95189453 156.42676758 -2.45703125 156.42578125 C-9.67828288 156.38132758 -9.67828288 156.38132758 -13.1015625 155.24023438 C-15.35132902 152.00066695 -15.35077369 149.11065718 -15.34880066 145.2434082 C-15.35299515 144.01522369 -15.35718964 142.78703918 -15.36151123 141.52163696 C-15.35602802 140.16351239 -15.35034505 138.80538861 -15.34448242 137.44726562 C-15.34555555 136.01475945 -15.34749469 134.58225371 -15.35023499 133.14974976 C-15.35508159 129.26136941 -15.34742988 125.37310386 -15.33728194 121.4847374 C-15.32849757 117.41601441 -15.33025897 113.34729499 -15.3306427 109.27856445 C-15.32970618 102.44578125 -15.32102402 95.61304245 -15.30737305 88.78027344 C-15.29164768 80.87999637 -15.28637496 72.97976794 -15.2871086 65.07947636 C-15.28771897 57.48049812 -15.28261272 49.88153573 -15.27431679 42.28256226 C-15.27078593 39.04820634 -15.26895382 35.81385604 -15.26842308 32.57949829 C-15.26741849 28.77101487 -15.26131231 24.96257227 -15.25125694 21.15410233 C-15.24833634 19.7560819 -15.24710569 18.35805677 -15.24768448 16.96003342 C-15.24817539 15.05237137 -15.24189976 13.14471115 -15.23527527 11.23706055 C-15.23359942 10.16928879 -15.23192358 9.10151703 -15.23019695 8.00138855 C-15.11621502 5.55475245 -14.94079371 3.53713752 -14.1015625 1.24023438 C-9.94374941 -0.83867217 -4.57360051 0.01334708 0 0 Z M-2.1015625 12.24023438 C-2.1015625 55.80023438 -2.1015625 99.36023438 -2.1015625 144.24023438 C9.77504442 144.59643218 9.77504442 144.59643218 16.8984375 143.24023438 C16.8984375 142.58023438 16.8984375 141.92023438 16.8984375 141.24023438 C17.4965625 140.99273437 18.0946875 140.74523437 18.7109375 140.49023438 C21.28023282 139.02206562 22.33538779 137.74413641 23.8984375 135.24023438 C24.34743654 132.93293913 24.34743654 132.93293913 24.28611755 130.42701721 C24.29602219 129.46111664 24.30592682 128.49521606 24.31613159 127.50004578 C24.31162994 126.44694717 24.3071283 125.39384857 24.30249023 124.30883789 C24.31278511 122.63751801 24.31278511 122.63751801 24.32328796 120.93243408 C24.34160865 117.24454044 24.33771078 113.55707007 24.33203125 109.86914062 C24.33659051 107.30850587 24.34189532 104.74787234 24.34791565 102.1872406 C24.35685715 96.81804868 24.35464509 91.44901139 24.34448242 86.07983398 C24.33300268 79.87785635 24.34707428 73.67631121 24.3738789 67.47439057 C24.3987194 61.50283265 24.40121188 55.531409 24.39476204 49.55979729 C24.3946085 47.02124245 24.40067999 44.48267942 24.41305351 41.94415474 C24.42791021 38.39611654 24.41732428 34.84903344 24.40014648 31.30102539 C24.40981445 30.24995102 24.41948242 29.19887665 24.42944336 28.11595154 C24.38565761 23.80279769 24.34865251 21.02701056 22.17958069 17.23643494 C13.76874209 9.87621274 11.39744439 12.24023438 -2.1015625 12.24023438 Z M59.54736328 28.85546875 C54.27236635 29.62168029 48.96314328 30.09509865 43.65722656 30.59326172 C39.64959558 30.91949173 39.64959558 30.91949173 35.8984375 32.24023438 C35.8984375 61.94023437 35.8984375 91.64023437 35.8984375 122.24023438 C41.74976878 122.31647465 41.74976878 122.31647465 46.8984375 121.24023438 C49.72828308 121.12111338 52.53283125 121.0523043 55.36328125 121.03710938 C56.60701256 121.02855927 56.60701256 121.02855927 57.87586975 121.01983643 C59.63346081 121.01039759 61.39106947 121.00385688 63.14868164 121 C65.79541514 120.99038164 68.44134213 120.95938515 71.08789062 120.92773438 C80.7863796 120.86739168 89.51842822 121.49437155 98.8984375 124.24023438 C100.85559551 124.74481537 102.81377307 125.24547711 104.7734375 125.74023438 C108.32144493 126.67450592 111.57215393 127.94524656 114.93017578 129.41943359 C118.68390182 130.98480533 122.55063675 132.24051287 126.3984375 133.55273438 C132.46246288 135.64484525 138.46082921 137.81180467 144.3984375 140.24023438 C152.67656285 143.61814189 161.10837025 146.51466394 169.55810547 149.43066406 C177.41601241 152.14888015 185.23305751 154.93311192 192.93359375 158.07226562 C199.45405751 160.64093317 206.05532013 163.00292861 212.63842773 165.40551758 C214.82018882 166.21133384 216.98970554 167.04516827 219.16015625 167.88085938 C237.47180469 174.53964063 255.52689682 170.86385908 272.8984375 163.24023438 C276.79172851 161.39710561 280.62521781 159.43782679 284.4609375 157.47851562 C289.39412805 154.9682737 294.3940276 152.60444427 299.3984375 150.24023438 C305.6265728 147.2948046 311.81901875 144.29883186 317.9609375 141.17773438 C324.69420426 137.76290788 331.55202457 134.67123425 338.45043945 131.60644531 C345.77663573 128.335253 352.94997702 124.80426949 360.09570312 121.15869141 C366.31307057 117.99106731 372.5819386 114.95488094 378.8984375 111.99023438 C386.39395381 108.45616258 393.83336774 104.82710052 401.2265625 101.08398438 C403.59933017 99.88390671 405.98028799 98.72599154 408.3828125 97.58398438 C417.23171996 93.37675337 417.23171996 93.37675337 423.2109375 85.86523438 C424.77799374 79.88192873 424.10789476 75.36245447 421.15625 70.03710938 C418.31577667 65.97929033 415.10288492 64.50700014 410.37109375 63.45898438 C404.9229459 62.87263384 400.22968679 64.53207567 395.0859375 66.17773438 C392.96360739 66.82768862 390.84120879 67.47741922 388.71875 68.12695312 C387.05827637 68.64394775 387.05827637 68.64394775 385.36425781 69.17138672 C379.41483904 71.00616802 373.43528653 72.7387283 367.4609375 74.49023438 C358.74825215 77.0461728 358.74825215 77.0461728 350.11328125 79.84960938 C346.82287294 80.96553525 343.52177117 81.86117213 340.14111328 82.67236328 C335.16308142 83.93285774 330.25576986 85.45946807 325.3359375 86.92773438 C324.16168213 87.27715088 322.98742676 87.62656738 321.77758789 87.98657227 C313.79201856 90.36693269 305.81104717 92.76256122 297.8359375 95.17773438 C296.86132568 95.47188232 295.88671387 95.76603027 294.88256836 96.0690918 C293.98932861 96.34084229 293.09608887 96.61259277 292.17578125 96.89257812 C291.00390259 97.24823853 291.00390259 97.24823853 289.80834961 97.61108398 C287.84423271 98.20695462 287.84423271 98.20695462 285.8984375 99.24023438 C285.5065625 100.41585937 285.1146875 101.59148437 284.7109375 102.80273438 C282.51110808 108.98003315 278.44527858 113.48574385 273.0859375 117.17773438 C259.27602959 121.78103701 246.17692363 116.27603291 232.8984375 112.24023438 C231.16801066 111.71796009 229.43754049 111.19582934 227.70703125 110.67382812 C214.38432378 106.64456786 201.08702603 102.5325359 187.80078125 98.38476562 C183.50815867 97.0455812 179.21041887 95.72801942 174.90234375 94.43945312 C173.57058105 94.03545288 173.57058105 94.03545288 172.21191406 93.62329102 C170.59538337 93.13331368 168.97636056 92.65145209 167.35449219 92.17944336 C162.12387743 90.57839427 162.12387743 90.57839427 159.8984375 87.24023438 C160.2734375 84.05273438 160.2734375 84.05273438 160.8984375 81.24023438 C166.0602179 80.20917523 169.24090708 80.32259304 174.1484375 82.17773438 C175.46828061 82.65402633 176.79007227 83.1249373 178.11328125 83.59179688 C178.8594873 83.85508789 179.60569336 84.11837891 180.37451172 84.38964844 C185.43938806 86.09655782 190.58131937 87.55449764 195.7109375 89.05273438 C205.16603422 91.83021051 214.60464368 94.65438382 224.0234375 97.55273438 C225.08280518 97.87798096 226.14217285 98.20322754 227.23364258 98.53833008 C234.67591079 100.83426654 242.07282035 103.21987263 249.3984375 105.86523438 C255.43315349 107.84176156 260.52800875 108.93970515 266.7109375 107.11523438 C270.28047656 105.01550551 271.97896609 103.92561948 273.8984375 100.24023438 C274.70667349 95.70005653 274.84067095 91.44563668 273.00390625 87.14648438 C269.03828613 81.68327357 263.05194418 80.00937342 256.88183594 77.92773438 C253.1416534 76.63128509 249.46116259 75.17778308 245.7734375 73.74023438 C244.99234619 73.43786865 244.21125488 73.13550293 243.40649414 72.82397461 C239.40505792 71.26393492 235.47135136 69.63734156 231.5859375 67.80273438 C226.29902083 65.31911306 220.86312465 63.29204199 215.3984375 61.24023438 C209.00492185 58.83912023 202.72489278 56.35812434 196.54296875 53.44726562 C187.43634698 49.29077208 177.98626378 45.88211013 168.59887695 42.42236328 C164.776645 40.99737765 161.07628353 39.43957679 157.3984375 37.67773438 C126.99970243 23.68893593 92.00101814 23.78214319 59.54736328 28.85546875 Z " fill="#292929" transform="translate(39.1015625,244.759765625)"/>
<path d="M0 0 C1.72233376 -0.00935994 1.72233376 -0.00935994 3.47946215 -0.01890898 C6.66256303 -0.0321025 9.8450537 -0.02735566 13.02813935 -0.0149641 C16.46243173 -0.00591656 19.89664139 -0.01988183 23.33091736 -0.03088379 C30.05703788 -0.04867686 36.78297993 -0.04482559 43.50910747 -0.03323323 C48.97520785 -0.02420225 54.44125819 -0.02297344 59.90736389 -0.02732849 C61.07399706 -0.02824789 61.07399706 -0.02824789 62.26419857 -0.02918586 C63.84415926 -0.03046475 65.42411993 -0.03176161 67.00408059 -0.03307623 C81.82183511 -0.04448433 96.63949067 -0.03136473 111.45722896 -0.00987476 C124.17348052 0.00799645 136.88958603 0.00489241 149.60583496 -0.0135498 C164.37030616 -0.03495248 179.13469062 -0.04338567 193.89917517 -0.03110075 C195.47334638 -0.02982654 197.0475176 -0.02856906 198.62168884 -0.02732849 C199.78349357 -0.02640284 199.78349357 -0.02640284 200.9687691 -0.02545848 C206.42874993 -0.02200377 211.88867576 -0.02783654 217.34864807 -0.0372467 C224.00193446 -0.04846139 230.65503206 -0.04543796 237.3082968 -0.02412373 C240.7034034 -0.01360597 244.09819517 -0.00950341 247.49329948 -0.02272034 C251.17220058 -0.03360809 254.85020893 -0.01999251 258.52905273 0 C259.6044344 -0.00892289 260.67981606 -0.01784577 261.78778505 -0.02703905 C266.15675062 0.01919445 268.98163337 0.07053105 272.84174347 2.22718048 C276.4847204 6.54838312 277.01463908 10.17218614 277.01849365 15.73217773 C277.0241333 16.98553421 277.02977295 18.23889069 277.0355835 19.53022766 C277.03169525 20.91146909 277.02759893 22.29270994 277.02331543 23.6739502 C277.02602671 25.13453852 277.02958841 26.59512547 277.03393555 28.05570984 C277.04304557 32.01640113 277.03952102 35.97698811 277.03317738 39.9376812 C277.02811021 44.08467767 277.03281082 48.23166528 277.03594971 52.37866211 C277.03958726 59.3425049 277.03479578 66.30630525 277.02526855 73.2701416 C277.0143844 81.31870058 277.01791013 89.36715822 277.02892137 97.41571474 C277.03800024 104.32879646 277.03927658 111.2418477 277.03404403 118.15493345 C277.03092763 122.28261189 277.03050591 126.41024272 277.037117 130.53791809 C277.04289857 134.41867626 277.03887875 138.2993039 277.02732849 142.18004799 C277.02468624 143.60345048 277.02543958 145.02686397 277.02985382 146.45026207 C277.03532759 148.3947345 277.02724302 150.33923096 277.01849365 152.28369141 C277.01736258 153.91520267 277.01736258 153.91520267 277.01620865 155.57967377 C276.66516043 159.66403251 275.49460062 162.34009836 273.33897305 165.78826809 C269.07905929 168.63378474 264.57795622 168.06057124 259.57337952 168.02259827 C257.84007673 168.03301656 257.84007673 168.03301656 256.07175773 168.04364532 C252.86360516 168.05879283 249.65604609 168.05595612 246.44789302 168.04549229 C242.98835317 168.03851006 239.52890887 168.05449076 236.06939697 168.06748962 C229.29167928 168.08915163 222.51412934 168.08899711 215.73638839 168.08086408 C210.22830978 168.07456854 204.72028016 168.075697 199.21220207 168.08213615 C198.42876042 168.08303781 197.64531876 168.08393946 196.83813645 168.08486844 C195.24666022 168.08671961 193.65518402 168.08858217 192.06370782 168.090456 C177.133416 168.10704224 162.20321862 168.0983084 147.27293246 168.08147042 C133.60947818 168.06677386 119.94624381 168.08139972 106.28281785 168.11024059 C92.25805914 168.13962401 78.23340196 168.15060989 64.20861381 168.14105839 C62.62263137 168.14003582 61.03664891 168.13904121 59.45066643 168.13807487 C58.67030673 168.13759848 57.88994704 168.1371221 57.08594008 168.13663127 C51.58437489 168.13446567 46.08290567 168.14427894 40.58136177 168.1588459 C33.8767872 168.17635032 27.17249301 168.1762794 20.46792955 168.15349425 C17.04643535 168.1423343 13.62543545 168.13922816 10.20396233 168.15779495 C6.49638398 168.1736373 2.79016979 168.15885518 -0.91734314 168.13612366 C-2.00118882 168.14795939 -3.0850345 168.15979511 -4.20172399 168.1719895 C-11.44771227 168.08137146 -11.44771227 168.08137146 -15.38035679 165.21867275 C-18.36644069 160.85534024 -18.36107461 157.67591681 -18.3691864 152.44863892 C-18.37345139 151.20651642 -18.37771637 149.96439392 -18.3821106 148.68463135 C-18.38176109 147.31079098 -18.38129957 145.93695064 -18.3807373 144.56311035 C-18.38372996 143.11414503 -18.38713274 141.66518051 -18.39091492 140.21621704 C-18.39974827 136.28228794 -18.40209275 132.3483806 -18.4027307 128.41444254 C-18.40344159 125.9559993 -18.40557663 123.49756159 -18.40822792 121.03911972 C-18.41747915 112.46052448 -18.42156309 103.88194479 -18.42077637 95.30334473 C-18.42017563 87.30993253 -18.43072718 79.31658783 -18.44652003 71.32319272 C-18.45960057 64.4576791 -18.46496005 57.59218754 -18.46432096 50.72666156 C-18.46406612 46.62743372 -18.46690946 42.52826586 -18.47749901 38.42905045 C-18.48718862 34.5729362 -18.48725327 30.71693918 -18.47998238 26.86082077 C-18.47893761 25.44751057 -18.48129305 24.03419303 -18.48734283 22.62089539 C-18.49508062 20.68767763 -18.48921053 18.75441983 -18.48271179 16.82119751 C-18.48325656 15.74052065 -18.48380133 14.65984379 -18.4843626 13.54641914 C-18.10793615 8.95093231 -17.26441648 5.76188505 -14.31269073 2.16468048 C-9.6254684 -0.35887771 -5.24499795 -0.04351992 0 0 Z M-5.23547363 12.50793457 C-5.23547363 59.69793457 -5.23547363 106.88793457 -5.23547363 155.50793457 C83.86452637 155.50793457 172.96452637 155.50793457 264.76452637 155.50793457 C264.76452637 108.31793457 264.76452637 61.12793457 264.76452637 12.50793457 C175.66452637 12.50793457 86.56452637 12.50793457 -5.23547363 12.50793457 Z " fill="#272727" transform="translate(171.2354736328125,71.4920654296875)"/>
<path d="M0 0 C62.37 0 124.74 0 189 0 C190.65 4.95 192.3 9.9 194 15 C194.99 15.99 195.98 16.98 197 18 C197 18.66 197 19.32 197 20 C202.14988445 22.21690264 207.48973508 23.45189209 212.91796875 24.8046875 C216 26 216 26 217.17546082 27.72425842 C218.1708794 30.47162992 218.26103589 32.6841561 218.2746582 35.60717773 C218.28419022 36.73192001 218.29372223 37.85666229 218.30354309 39.01548767 C218.30217598 40.83120018 218.30217598 40.83120018 218.30078125 42.68359375 C218.30506638 43.93125015 218.3093515 45.17890656 218.31376648 46.46437073 C218.31950995 49.1030994 218.32094518 51.74143692 218.31567383 54.38012695 C218.30988072 57.75395143 218.32681052 61.12722665 218.3500185 64.50096035 C218.36833208 67.72850058 218.36456985 70.95601093 218.36328125 74.18359375 C218.372491 75.39204453 218.38170074 76.6004953 218.39118958 77.8455658 C218.38496078 78.97346024 218.37873199 80.10135468 218.37231445 81.26342773 C218.37294388 82.25285873 218.3735733 83.24228973 218.3742218 84.26170349 C217.93225502 87.49571093 216.92919214 89.38646525 215 92 C212.73046875 92.8203125 212.73046875 92.8203125 210.1875 93.125 C205.94742481 93.76874864 202.78692677 94.91719027 199 97 C198.34 97 197.68 97 197 97 C197 97.66 197 98.32 197 99 C196.01 99.495 196.01 99.495 195 100 C192.68158992 104.63682017 191.46880072 108.97527897 190.625 114.08203125 C190 116 190 116 187 118 C184.50794059 118.19298819 182.12815779 118.26964782 179.6361084 118.25396729 C178.50225275 118.25864726 178.50225275 118.25864726 177.34549093 118.26342177 C174.80511845 118.27141786 172.26498376 118.26507191 169.72460938 118.25878906 C167.90639607 118.26149821 166.08818387 118.26505871 164.26997375 118.26940918 C159.32586551 118.27854451 154.38184053 118.27498421 149.43773079 118.26865101 C144.27013037 118.26359694 139.10253721 118.26828081 133.93493652 118.27142334 C125.2559277 118.27506472 116.57695288 118.27025939 107.89794922 118.26074219 C97.85558837 118.24985732 87.81330872 118.25338277 77.77094984 118.264395 C69.1577432 118.27346299 60.54456105 118.27475554 51.93135118 118.26951766 C46.78313395 118.26639527 41.63495491 118.26599598 36.48674011 118.27259064 C31.64735794 118.27835637 26.80808074 118.27438138 21.96870995 118.26280212 C20.18970603 118.2601514 18.41069333 118.26092763 16.63169289 118.26532745 C14.20897207 118.27076812 11.78659062 118.26396694 9.3638916 118.25396729 C8.65485105 118.25842873 7.9458105 118.26289017 7.21528387 118.26748681 C3.57744853 118.2382322 2.11865541 118.07910361 -1 116 C-1.73046875 113.9765625 -1.73046875 113.9765625 -2.1875 111.625 C-2.34605469 110.85414063 -2.50460938 110.08328125 -2.66796875 109.2890625 C-3 107 -3 107 -3 103 C-3.66 103 -4.32 103 -5 103 C-5.495 101.9171875 -5.495 101.9171875 -6 100.8125 C-9.30595354 96.16350283 -14.71265417 93.55708377 -20.328125 92.60546875 C-21.02421875 92.55003906 -21.7203125 92.49460937 -22.4375 92.4375 C-26 92 -26 92 -27.6993866 90.32983398 C-29.30789313 87.44846033 -29.37436737 85.57744278 -29.37231445 82.28515625 C-29.37854324 81.13716553 -29.38477203 79.9891748 -29.39118958 78.80639648 C-29.38197983 77.57091064 -29.37277008 76.3354248 -29.36328125 75.0625 C-29.36377975 73.79027588 -29.36427826 72.51805176 -29.36479187 71.20727539 C-29.36245107 68.51710735 -29.35430099 65.82772651 -29.33618164 63.13769531 C-29.31349462 59.69435522 -29.31295168 56.25145396 -29.31969929 52.80805969 C-29.32384935 49.5178402 -29.31186335 46.22769824 -29.30078125 42.9375 C-29.30169266 41.70201416 -29.30260406 40.46652832 -29.30354309 39.19360352 C-29.29401108 38.04561279 -29.28447906 36.89762207 -29.2746582 35.71484375 C-29.27005081 34.70542725 -29.26544342 33.69601074 -29.26069641 32.65600586 C-28.99016081 29.89975718 -28.57528994 28.27074074 -27 26 C-24.53455225 25.17720105 -22.27651245 24.58119998 -19.75 24.0625 C-11.86247525 22.2338575 -11.86247525 22.2338575 -6 17 C-4.36969566 13.41003692 -3.14952521 9.76730762 -2 6 C-1.34 4.02 -0.68 2.04 0 0 Z M9 12 C8.01 14.97 7.02 17.94 6 21 C-0.01056288 30.05504364 -6.56585868 33.39146467 -17 36 C-17 50.52 -17 65.04 -17 80 C-12.38 81.98 -7.76 83.96 -3 86 C3.9583827 91.79865225 7.12015077 97.36045231 10 106 C65.77 106 121.54 106 179 106 C180.32 102.7 181.64 99.4 183 96 C188.35318692 87.54697211 195.78178222 84.07273926 205 81 C205 66.15 205 51.3 205 36 C201.7 34.68 198.4 33.36 195 32 C186.21235244 26.09972235 183.49146271 22.47438814 180 12 C123.57 12 67.14 12 9 12 Z " fill="#252525" transform="translate(206,97)"/>
<path d="M0 0 C8.02332883 6.6154617 13.82679053 14.99355515 14.91015625 25.47265625 C15.86186446 38.75014635 13.62070445 49.22661311 5.3203125 59.97265625 C-1.3816408 67.28895527 -10.71537757 72.30926325 -20.65234375 72.9453125 C-35.22498234 73.31866804 -45.21522625 70.10284791 -55.9296875 59.95703125 C-57.9296875 57.70703125 -57.9296875 57.70703125 -57.9296875 55.70703125 C-58.5896875 55.70703125 -59.2496875 55.70703125 -59.9296875 55.70703125 C-65.95289628 43.41612921 -68.20106632 31.03965877 -63.9296875 17.70703125 C-60.37429199 7.72835214 -52.51237017 -0.19603501 -43.3125 -5.17578125 C-28.91158755 -11.92768446 -12.65694899 -8.95966819 0 0 Z M-45.9296875 11.70703125 C-45.9296875 12.36703125 -45.9296875 13.02703125 -45.9296875 13.70703125 C-46.5896875 13.70703125 -47.2496875 13.70703125 -47.9296875 13.70703125 C-48.75081927 15.09780426 -49.56121245 16.49492018 -50.3671875 17.89453125 C-51.04587891 19.06048828 -51.04587891 19.06048828 -51.73828125 20.25 C-55.42062316 27.84407562 -54.53751887 36.52575338 -51.98828125 44.33203125 C-50.34181401 48.02595038 -48.02960969 51.09929727 -44.9296875 53.70703125 C-44.2696875 53.70703125 -43.6096875 53.70703125 -42.9296875 53.70703125 C-42.9296875 54.36703125 -42.9296875 55.02703125 -42.9296875 55.70703125 C-36.03237565 60.72325805 -28.2023028 61.50338933 -19.9296875 60.70703125 C-15.6986267 59.61400721 -11.76783569 57.78602819 -7.9296875 55.70703125 C-7.9296875 55.04703125 -7.9296875 54.38703125 -7.9296875 53.70703125 C-7.33542969 53.46597656 -6.74117188 53.22492188 -6.12890625 52.9765625 C-1.82770601 50.49363163 0.17790033 46.16730117 2.0703125 41.70703125 C4.26362105 30.98137209 2.11251013 23.13055595 -2.9296875 13.70703125 C-3.5896875 13.70703125 -4.2496875 13.70703125 -4.9296875 13.70703125 C-4.9296875 13.04703125 -4.9296875 12.38703125 -4.9296875 11.70703125 C-6.50527247 10.18346326 -6.50527247 10.18346326 -8.5546875 8.70703125 C-9.22757812 8.19140625 -9.90046875 7.67578125 -10.59375 7.14453125 C-22.74078206 -0.33056541 -35.60737217 3.49131088 -45.9296875 11.70703125 Z " fill="#292929" transform="translate(325.9296875,123.29296875)"/>
<path d="M0 0 C4.73812038 2.60149628 7.0789774 5.83865445 8.9453125 10.87109375 C10.55167477 16.8547932 10.00139668 21.93252592 6.9609375 27.37109375 C3.64401976 31.73153618 -1.0476156 34.17869214 -6.3671875 35.26171875 C-12.57681176 35.68954719 -17.63990975 32.60819272 -22.3671875 28.88671875 C-25.81522853 24.39381681 -26.67875226 20.20093204 -26.3046875 14.63671875 C-25.48623947 9.04081825 -23.02574088 5.60526578 -18.8046875 1.88671875 C-13.32462779 -2.00700789 -6.35129135 -2.09327127 0 0 Z M-11.4296875 11.19921875 C-13.91888393 15.07314259 -13.91888393 15.07314259 -13.9296875 19.44921875 C-12.01880355 21.67858336 -10.19822096 22.32494502 -7.4296875 23.19921875 C-4.78395249 20.9704415 -4.78395249 20.9704415 -2.4296875 18.19921875 C-2.52121387 15.08732201 -3.66085001 13.85247498 -5.4296875 11.19921875 C-8.51334621 10.94900305 -8.51334621 10.94900305 -11.4296875 11.19921875 Z " fill="#292929" transform="translate(233.4296875,138.80078125)"/>
<path d="M0 0 C2.05913859 1.20116418 3.80342714 2.25017761 5.453125 3.97265625 C5.453125 4.96265625 5.453125 5.95265625 5.453125 6.97265625 C6.113125 6.97265625 6.773125 6.97265625 7.453125 6.97265625 C10.34665978 13.61076545 9.35610849 19.073604 7.265625 25.78515625 C4.61098348 30.45366376 1.35683208 32.10357258 -3.421875 34.28515625 C-9.15840901 35.54719373 -13.70540137 34.70766718 -18.796875 31.97265625 C-23.28551161 28.91543525 -25.12129425 25.12256673 -26.546875 19.97265625 C-27.40485237 13.96681465 -25.84539361 8.98602971 -22.546875 3.97265625 C-16.65880471 -2.12772427 -7.72944324 -3.11785824 0 0 Z M-11.546875 10.97265625 C-13.67445542 13.27044311 -14.56220097 14.34429142 -14.484375 17.53515625 C-13.33127996 20.53320336 -12.45518786 21.59928629 -9.546875 22.97265625 C-6.83852447 22.62287801 -6.83852447 22.62287801 -4.546875 20.97265625 C-2.90967358 18.26771478 -2.37824374 16.83990271 -2.984375 13.72265625 C-5.40698967 11.00932782 -8.05092571 11.23161546 -11.546875 10.97265625 Z " fill="#262626" transform="translate(384.546875,139.02734375)"/>
<path d="M0 0 C1.875 1.125 1.875 1.125 3 3 C3.59669228 7.09979451 3.30578848 8.5884922 0.80029297 11.96020508 C-0.20279782 12.995996 -1.22338076 14.01503887 -2.2578125 15.01953125 C-2.79848358 15.56357101 -3.33915466 16.10761078 -3.89620972 16.6681366 C-5.04072866 17.81235719 -6.19271941 18.94914636 -7.3515625 20.07885742 C-9.117648 21.80531298 -10.85255538 23.55913894 -12.5859375 25.31835938 C-13.703983 26.42884416 -14.82372148 27.53762756 -15.9453125 28.64453125 C-16.71912766 29.42882256 -16.71912766 29.42882256 -17.50857544 30.22895813 C-20.86674226 33.45960861 -23.31740131 34.83285277 -28 35 C-30.375 33.9375 -30.375 33.9375 -32 32 C-32.45703125 29.2578125 -32.45703125 29.2578125 -32 26 C-30.15171126 23.70953692 -28.46322146 21.89155525 -26.3125 19.9375 C-25.51682617 19.18243164 -25.51682617 19.18243164 -24.70507812 18.41210938 C-23.64856889 17.41004601 -22.5869814 16.41330835 -21.52026367 15.42211914 C-18.47599727 12.57438319 -15.56606251 9.61922316 -12.75390625 6.54296875 C-11.66916016 5.37701172 -11.66916016 5.37701172 -10.5625 4.1875 C-9.84191406 3.39730469 -9.12132812 2.60710937 -8.37890625 1.79296875 C-5.37420004 -0.47166204 -3.68058735 -0.43151714 0 0 Z " fill="#2F2F2F" transform="translate(315,138)"/>
<path d="M0 0 C-3.92643408 1.66575991 -7.89282898 2.85911916 -12 4 C-12.99 4.33 -13.98 4.66 -15 5 C-14.67 24.8 -14.34 44.6 -14 65 C-11.69 65.66 -9.38 66.32 -7 67 C-7 67.33 -7 67.66 -7 68 C-10.3125 68.25 -10.3125 68.25 -14 68 C-16.23629772 65.82756338 -16.9379244 64.44057605 -17.3742218 61.34399414 C-17.37359238 60.33457764 -17.37296295 59.32516113 -17.37231445 58.28515625 C-17.37854324 57.13716553 -17.38477203 55.9891748 -17.39118958 54.80639648 C-17.38197983 53.57091064 -17.37277008 52.3354248 -17.36328125 51.0625 C-17.36377975 49.79027588 -17.36427826 48.51805176 -17.36479187 47.20727539 C-17.36245107 44.51710735 -17.35430099 41.82772651 -17.33618164 39.13769531 C-17.31349462 35.69435522 -17.31295168 32.25145396 -17.31969929 28.80805969 C-17.32384935 25.5178402 -17.31186335 22.22769824 -17.30078125 18.9375 C-17.30169266 17.70201416 -17.30260406 16.46652832 -17.30354309 15.19360352 C-17.29401108 14.04561279 -17.28447906 12.89762207 -17.2746582 11.71484375 C-17.27005081 10.70542725 -17.26544342 9.69601074 -17.26069641 8.65600586 C-16.99131989 5.91156602 -16.53584466 4.27935607 -15 2 C-12.28515625 0.91796875 -12.28515625 0.91796875 -9.0625 0.1875 C-8.00160156 -0.06644531 -6.94070312 -0.32039063 -5.84765625 -0.58203125 C-3 -1 -3 -1 0 0 Z " fill="#CFCFCF" transform="translate(194,121)"/>
<path d="M0 0 C1.91015625 0.23046875 1.91015625 0.23046875 3.91015625 2.23046875 C4.28515625 5.66796875 4.28515625 5.66796875 3.91015625 9.23046875 C2.22265625 11.23046875 2.22265625 11.23046875 -0.08984375 12.23046875 C-3.25072093 12.15337418 -4.61254844 11.66003453 -6.96484375 9.54296875 C-8.48516023 6.41787376 -7.96940417 4.52882031 -7.08984375 1.23046875 C-5.19495423 -0.66442077 -2.51845229 0.05027763 0 0 Z " fill="#464646" transform="translate(314.08984375,161.76953125)"/>
<path d="M0 0 C2.97 0 5.94 0 9 0 C11 4 11 4 10.8125 6.5625 C9.90845155 9.27464536 9.43809395 10.48670031 7 12 C3.35265021 11.77669287 1.61627165 11.61627165 -1 9 C-1.33870968 2.67741935 -1.33870968 2.67741935 0 0 Z " fill="#454545" transform="translate(284,138)"/>
<path d="M0 0 C-3.92643408 1.66575991 -7.89282898 2.85911916 -12 4 C-12.99 4.33 -13.98 4.66 -15 5 C-15 7.97 -15 10.94 -15 14 C-15.33 14 -15.66 14 -16 14 C-16.08121924 12.39667209 -16.13929134 10.79215974 -16.1875 9.1875 C-16.22230469 8.29417969 -16.25710937 7.40085938 -16.29296875 6.48046875 C-16 4 -16 4 -14.80078125 2.25390625 C-12.55294827 0.68871235 -10.68855742 0.24610286 -8 -0.25 C-6.700625 -0.50523438 -6.700625 -0.50523438 -5.375 -0.765625 C-3 -1 -3 -1 0 0 Z " fill="#ACACAC" transform="translate(194,121)"/>
<path d="M0 0 C0.66 0.33 1.32 0.66 2 1 C0.02 3.31 -1.96 5.62 -4 8 C-4.33 7.01 -4.66 6.02 -5 5 C-3.35 3.35 -1.7 1.7 0 0 Z " fill="#A4A4A4" transform="translate(365,141)"/>
</svg>
