<?xml version="1.0" encoding="UTF-8"?>
<svg version="1.1" xmlns="http://www.w3.org/2000/svg" width="462" height="308">
<path d="M0 0 C1.14196 -0.00260775 2.28392001 -0.00521549 3.46048486 -0.00790226 C5.35077132 -0.00455618 5.35077132 -0.00455618 7.27924538 -0.0011425 C8.62708123 -0.00229411 9.97491676 -0.00388191 11.32275164 -0.00586975 C15.03464364 -0.01005766 18.74651005 -0.00797477 22.45840216 -0.00488353 C26.45848422 -0.00262743 30.45856178 -0.00611012 34.45864296 -0.00886345 C42.29858736 -0.01331812 50.1385222 -0.01234595 57.97846697 -0.00945081 C64.34944486 -0.00719527 70.72042007 -0.00688491 77.09139824 -0.00797462 C77.99709128 -0.00812786 78.90278432 -0.00828109 79.83592261 -0.00843897 C81.67566835 -0.00875868 83.51541409 -0.0090829 85.35515983 -0.00941156 C102.62123786 -0.01226555 119.88731058 -0.00898077 137.15338774 -0.00361119 C151.97428378 0.00085526 166.79517199 0.00008206 181.61606789 -0.00452995 C198.81595826 -0.00987975 216.01584399 -0.01198927 233.21573508 -0.00891769 C235.04944205 -0.00859913 236.88314903 -0.00828476 238.716856 -0.00797462 C239.61913154 -0.00782035 240.52140707 -0.00766607 241.45102429 -0.00750712 C247.81465786 -0.00664307 254.17828849 -0.00810248 260.54192162 -0.01045418 C268.29678395 -0.01325693 276.05163615 -0.0125039 283.80649732 -0.00717343 C287.76451407 -0.00454263 291.72251392 -0.00352087 295.68053055 -0.00682259 C299.30257876 -0.00979836 302.92459439 -0.00817125 306.54663964 -0.00284503 C308.48039782 -0.00119562 310.41415826 -0.00446707 312.3479141 -0.00790226 C314.06867735 -0.00399064 314.06867735 -0.00399064 315.82420349 0 C316.81402706 0.00016235 317.80385062 0.0003247 318.82366884 0.00049198 C321.49281346 0.123757 323.9373628 0.52859372 326.53794289 1.12584114 C326.28587546 4.39507931 325.35297282 5.30551041 322.94809914 7.64146614 C321.84018833 8.56260142 320.72377192 9.47357264 319.60044289 10.37584114 C319.01649757 10.85746712 318.43255226 11.33909309 317.83091164 11.8353138 C313.52235661 15.37599589 309.1594559 18.85158274 304.75669289 22.27427864 C302.43175073 24.15809729 302.43175073 24.15809729 300.06919289 26.59459114 C297.66315589 29.00062814 295.19083512 31.1236745 292.53794289 33.25084114 C288.38195377 36.6112393 284.2873144 40.02847691 280.22544289 43.50084114 C275.04060633 47.92173587 269.73168771 52.15943607 264.35605812 56.34532356 C260.90279949 59.0383299 257.52953626 61.78670513 254.23716164 64.67271614 C251.24338196 67.23291393 248.12895611 69.64456501 245.04184914 72.09068489 C241.97526524 74.58318132 239.04227371 77.20383251 236.13169289 79.87584114 C234.53794289 81.12584114 234.53794289 81.12584114 232.53794289 81.12584114 C232.53794289 81.78584114 232.53794289 82.44584114 232.53794289 83.12584114 C231.06138039 84.43052864 231.06138039 84.43052864 228.91294289 86.00084114 C224.66490659 89.20526537 220.61988651 92.58138126 216.60044289 96.06334114 C211.90039537 100.12196307 207.15413799 104.09165635 202.28403664 107.94615364 C193.61225817 114.8293007 185.02961617 121.8226184 176.60044289 129.00084114 C175.54868716 129.88924996 174.49661523 130.77728461 173.44419289 131.66490364 C171.59812177 133.22810902 169.763322 134.80480102 167.94419289 136.39927864 C162.47573778 141.01100911 162.47573778 141.01100911 158.47544289 141.50084114 C154.9850101 139.86702154 152.59191097 137.81685015 149.78403664 135.20005989 C147.40411028 133.00224964 144.93481397 130.9713914 142.41294289 128.93834114 C138.11699828 125.44825649 133.9091896 121.87319054 129.72544289 118.25084114 C121.97385553 111.55545731 114.06816219 104.81265401 105.53794289 99.12584114 C105.53794289 98.46584114 105.53794289 97.80584114 105.53794289 97.12584114 C104.99266945 96.88865364 104.44739601 96.65146614 103.88559914 96.40709114 C100.93478856 94.7966654 98.55090071 92.78432008 95.97544289 90.62584114 C93.20882577 88.31344475 90.5391774 86.12666415 87.53794289 84.12584114 C87.53794289 83.46584114 87.53794289 82.80584114 87.53794289 82.12584114 C86.97977882 81.87705208 86.42161476 81.62826302 85.84653664 81.37193489 C83.13750059 79.90969716 80.96829969 78.15740101 78.60044289 76.18834114 C77.63364601 75.38654427 76.66684914 74.58474739 75.67075539 73.75865364 C71.86950562 70.57213536 68.08973513 67.36022608 64.31015968 64.14805794 C60.27426171 60.7261489 56.17408688 57.39592084 52.02622414 54.11021614 C48.27678361 51.12008147 44.58320988 48.0625077 40.88559914 45.00865364 C38.4864844 43.02809456 38.4864844 43.02809456 35.53794289 41.12584114 C35.53794289 40.46584114 35.53794289 39.80584114 35.53794289 39.12584114 C34.8225132 38.89252083 34.10708351 38.65920052 33.36997414 38.41880989 C30.01833682 36.88861409 27.90061839 34.96640135 25.22544289 32.43834114 C24.25993507 31.53857552 23.29442726 30.63880989 22.29966164 29.71177864 C21.38829445 28.85841927 20.47692726 28.00505989 19.53794289 27.12584114 C12.14299343 20.45803885 4.56638125 13.82640411 -3.64955711 8.18834114 C-4.57768211 7.50771614 -5.50580711 6.82709114 -6.46205711 6.12584114 C-6.46205711 5.46584114 -6.46205711 4.80584114 -6.46205711 4.12584114 C-7.12205711 4.12584114 -7.78205711 4.12584114 -8.46205711 4.12584114 C-8.46205711 3.13584114 -8.46205711 2.14584114 -8.46205711 1.12584114 C-5.36463735 0.09336789 -3.24662133 0.00053269 0 0 Z " fill="#070707" transform="translate(67.46205711364746,45.87415885925293)"/>
<path d="M0 0 C3.81757935 0.97863659 5.38773022 2.16582037 8.16194439 4.92113018 C11.40147266 8.01917303 14.63383419 10.96727105 18.16194439 13.73363018 C22.05793469 16.80781003 25.87876014 19.95970472 29.66194439 23.17113018 C30.20302837 23.62979473 30.74411236 24.08845928 31.30159283 24.56102276 C34.18563444 27.00956899 37.06017569 29.46873732 39.92756939 31.93675518 C40.51111187 32.4365086 41.09465435 32.93626202 41.69587994 33.45115948 C42.8123079 34.4074851 43.92591488 35.3671172 45.03621197 36.33055401 C49.98067672 40.71238485 49.98067672 40.71238485 56.21272564 41.79613018 C60.11706853 40.62920329 62.5900116 38.54977785 65.53694439 35.85863018 C66.68593457 34.84736142 67.83568561 33.83695653 68.98616314 32.82738018 C69.55383404 32.32335674 70.12150494 31.81933331 70.70637798 31.30003643 C73.03652044 29.25588174 75.43886592 27.30685758 77.84944439 25.35863018 C81.29898714 22.55400194 84.70838725 19.71130778 88.08552837 16.82054424 C90.26686455 14.95797624 92.46128819 13.11149774 94.66145611 11.27122784 C95.80916793 10.31076203 96.95392494 9.34675666 98.09602642 8.37962627 C99.8115094 6.93679022 101.54573626 5.52025069 103.28694439 4.10863018 C103.80627544 3.66591778 104.3256065 3.22320538 104.86067486 2.76707745 C107.41848377 0.73359877 108.88946853 -0.15494495 112.19514751 -0.05738544 C116.18705097 1.10187321 117.90242425 2.83932533 120.79085064 5.81175518 C121.28101162 6.3089909 121.7711726 6.80622662 122.27618694 7.31853008 C123.8336382 8.90382149 125.37280668 10.50557279 126.91194439 12.10863018 C127.94918143 13.17097603 128.98758298 14.2321862 130.02717876 15.29222393 C131.94744798 17.25315614 133.85896936 19.22132802 135.76570415 21.19554424 C137.50883999 22.99221113 139.26694192 24.77446181 141.03865337 26.54295635 C144.20318512 29.71417491 147.11866658 33.08613933 150.06819439 36.45628643 C152.34605166 38.85505735 154.76459616 40.80240631 157.34944439 42.85863018 C159.04632582 44.70804028 160.62330351 46.62392407 162.21272564 48.56566143 C163.99679028 50.48018783 165.76432046 52.09731798 167.7527647 53.78441143 C173.42180291 58.7187952 178.71201286 64.03692658 184.03303814 69.33909893 C184.57608152 69.87931494 185.11912491 70.41953094 185.67862415 70.97611713 C188.54187408 73.82449501 191.4023307 76.67564164 194.26033306 79.52928448 C197.20811891 82.47154457 200.16510241 85.40438062 203.12423897 88.33521843 C205.40689199 90.59927501 207.68283579 92.86998529 209.95697498 95.14259052 C211.04495111 96.22754238 212.13542509 97.30999547 213.22844028 98.38987064 C214.75045856 99.89486107 216.26276012 101.40900014 217.77302837 102.92576885 C218.63492275 103.7840176 219.49681713 104.64226635 220.38482952 105.52652264 C222.26512009 107.75853253 223.10063543 108.97721337 223.34944439 111.85863018 C219.59438336 115.61369121 206.82152153 113.92800943 201.63480282 113.96885395 C199.266826 113.96703719 196.89884877 113.95970006 194.53090191 113.94764996 C193.21361434 113.94512639 191.89632677 113.94260283 190.53912139 113.9400028 C186.92608556 113.93292776 183.31309909 113.91945294 179.70008707 113.90481186 C175.78752115 113.89010238 171.87494091 113.88144565 167.96235943 113.87198162 C160.31809144 113.85252337 152.67385178 113.82747484 145.02960745 113.80037858 C138.82000921 113.77847389 132.6104075 113.75863908 126.40079784 113.74026394 C125.51515655 113.73764181 124.62951526 113.73501968 123.71703635 113.7323181 C121.91770931 113.72700031 120.11838225 113.72168752 118.31905517 113.71637969 C101.48268422 113.66647809 84.64633908 113.61023723 67.80999598 113.55177395 C53.35668659 113.50173028 38.90336869 113.45703976 24.45003033 113.41624737 C7.65293419 113.36883695 -9.14414716 113.31822985 -25.94121766 113.26242197 C-27.73004451 113.25648681 -29.51887137 113.25055546 -31.30769825 113.24462795 C-32.18780228 113.24170957 -33.06790632 113.23879118 -33.97468017 113.23578436 C-40.18455348 113.21541176 -46.39443105 113.19733101 -52.60431385 113.18012142 C-60.15991554 113.15911672 -67.71549584 113.1345862 -75.27107081 113.10547496 C-79.12752119 113.0907048 -82.98395952 113.07754988 -86.84042835 113.06866932 C-91.01225651 113.05900864 -95.18401691 113.04170823 -99.35581684 113.02357769 C-100.58554494 113.02191746 -101.81527303 113.02025724 -103.08226562 113.0185467 C-104.19230051 113.01245556 -105.30233541 113.00636441 -106.44600773 113.00008869 C-107.40974332 112.99688858 -108.3734789 112.99368846 -109.3664186 112.99039137 C-111.65055561 112.85863018 -111.65055561 112.85863018 -113.65055561 111.85863018 C-112.13499449 108.30976362 -110.06039532 106.00354293 -107.3570528 103.27078533 C-106.00501003 101.89727665 -106.00501003 101.89727665 -104.62565327 100.49602032 C-103.62406853 99.48875564 -102.62235522 98.4816188 -101.62052631 97.47459698 C-100.56719078 96.40872635 -99.51423694 95.34247839 -98.46163654 94.27588177 C-95.00709466 90.77934372 -91.54195075 87.29340718 -88.07633686 83.80784893 C-86.883394 82.6068094 -85.69051997 81.40570148 -84.49771404 80.20452595 C-78.89601618 74.56475257 -73.28953088 68.92979278 -67.6771062 63.30069417 C-61.19719984 56.80121762 -54.73420622 50.2855082 -48.28499252 43.7555787 C-43.29849215 38.70882038 -38.29679617 33.67745305 -33.28339356 28.6574195 C-30.28920655 25.6585263 -27.30202393 22.65335623 -24.33069515 19.63179874 C-21.5367976 16.79143698 -18.72457501 13.97060941 -15.89707851 11.16370487 C-14.86255728 10.13017682 -13.83486044 9.0897658 -12.81462193 8.04213619 C-11.42133928 6.61356409 -10.0007574 5.21176902 -8.57897663 3.81155682 C-7.39790821 2.62332333 -7.39790821 2.62332333 -6.19297981 1.41108513 C-3.65055561 -0.14136982 -3.65055561 -0.14136982 0 0 Z " fill="#030303" transform="translate(171.65055561065674,161.1413698196411)"/>
<path d="M0 0 C5.46599806 3.99378082 10.7208163 8.20346491 15.94140625 12.51171875 C18.6863988 14.74487361 21.46136052 16.92809415 24.25634766 19.09765625 C29.92803549 23.50130249 35.36494048 28.03661739 40.65625 32.8984375 C43.74143918 35.6648238 46.98027131 38.20615712 50.234375 40.76953125 C53.55098369 43.44436679 56.77585909 46.21500335 60 49 C63.94618017 52.40677046 67.90723247 55.76886774 72 59 C77.90655935 63.66667004 83.59059506 68.59098968 89.27832031 73.52001953 C90.48353278 74.5560374 91.69718047 75.58228598 92.91699219 76.60107422 C93.5412207 77.12459473 94.16544922 77.64811523 94.80859375 78.1875 C95.37505615 78.65800781 95.94151855 79.12851563 96.52514648 79.61328125 C100.29919955 83.16180325 101.62478341 87.82361627 102.04861927 92.88641453 C101.83186782 102.30907184 95.95914348 107.8726108 89.5715332 114.10961914 C88.59444382 115.08501336 87.61867913 116.06173608 86.64413452 117.03967285 C84.0109624 119.67455756 81.35978358 122.29060608 78.70483804 124.90352559 C75.92738744 127.64331879 73.16706132 130.40025814 70.40483093 133.15538025 C65.17886524 138.36274111 59.93780292 143.5546255 54.69106597 148.74104828 C48.71550734 154.64940581 42.7570963 160.57492963 36.80002463 166.501917 C24.55225565 178.68706982 12.28325436 190.8506212 0 203 C-2.49899163 200.50100837 -2.24162858 199.01419301 -2.26748681 195.60438216 C-2.26302537 194.8464195 -2.25856392 194.08845685 -2.25396729 193.30752563 C-2.25708727 192.50417923 -2.26020725 191.70083283 -2.26342177 190.8731426 C-2.27143468 188.16616879 -2.26506534 185.45941711 -2.25878906 182.75244141 C-2.26149751 180.81777311 -2.26505761 178.88310585 -2.26940918 176.94844055 C-2.2785541 171.68190389 -2.27497997 166.41544528 -2.26865101 161.14890718 C-2.26360042 155.64544235 -2.26827997 150.14198437 -2.27142334 144.63851929 C-2.27506635 135.39278967 -2.27025576 126.14709196 -2.26074219 116.90136719 C-2.24986343 106.20523793 -2.25337767 95.50918494 -2.264395 84.81305754 C-2.27346601 75.6402002 -2.27475386 66.46736585 -2.26951766 57.29450548 C-2.26639611 51.8114531 -2.26599356 46.32843659 -2.27259064 40.84538651 C-2.27836053 35.68919741 -2.27437369 30.53310677 -2.26280212 25.37692833 C-2.26015336 23.48224107 -2.26092431 21.58754555 -2.26532745 19.69286156 C-2.27077594 17.11060903 -2.26395718 14.52867385 -2.25396729 11.94644165 C-2.25842873 11.19294044 -2.26289017 10.43943923 -2.26748681 9.66310465 C-2.23955042 5.95131999 -2.06348986 3.15217646 0 0 Z " fill="#060606" transform="translate(48,58)"/>
<path d="M0 0 C0.99 0.33 1.98 0.66 3 1 C3.13223055 20.05841478 3.26267576 39.11684105 3.39115143 58.17528152 C3.450881 67.02994601 3.51114683 75.88460618 3.57275391 84.73925781 C4.04515021 152.7359228 4.04515021 152.7359228 4.08811951 176.85604095 C4.09181895 178.70614771 4.09711071 180.55625209 4.10414124 182.40634918 C4.11283948 184.85523433 4.11515264 187.30403131 4.11523438 189.75292969 C4.11880447 190.44436821 4.12237457 191.13580673 4.12605286 191.84819794 C4.11834992 195.04874349 3.97534983 197.93804904 3 201 C-0.73743884 200.42623733 -2.4578553 198.92063916 -5.10536194 196.28231812 C-6.31874489 195.08379211 -6.31874489 195.08379211 -7.55664062 193.86105347 C-8.43521729 192.97797516 -9.31379395 192.09489685 -10.21899414 191.18505859 C-11.15110214 190.25981384 -12.08321014 189.33456909 -13.04356384 188.38128662 C-15.6001952 185.84261386 -18.14716065 183.29444716 -20.69197392 180.74393415 C-22.81877328 178.61404531 -24.9501447 176.48876167 -27.08150667 174.36344016 C-32.11205836 169.3469424 -37.13475267 164.32267227 -42.15258789 159.29345703 C-47.32366262 154.11091391 -52.50736154 148.94125439 -57.69756609 143.7778753 C-62.15674195 139.34088313 -66.60808748 134.89614187 -71.05325216 130.44511282 C-73.70656224 127.7884367 -76.36266608 125.1347204 -79.02626228 122.48835373 C-81.99907172 119.53393618 -84.95536565 116.56350452 -87.91040039 113.59130859 C-88.79100128 112.72037567 -89.67160217 111.84944275 -90.57888794 110.95211792 C-95.9168483 105.54903649 -100.42234094 100.58164039 -100.4375 92.5625 C-100.10391699 84.68994087 -96.08029699 79.4751893 -90.53125 74.1953125 C-86.89028327 71.03756049 -83.10120318 68.08568128 -79.28466797 65.14404297 C-74.78561628 61.66646272 -70.55789899 57.97493585 -66.37109375 54.125 C-63.13614655 51.22580515 -59.74659789 48.54653913 -56.33203125 45.86328125 C-54.16443222 44.13138052 -52.07826601 42.33730763 -50 40.5 C-47 38 -47 38 -45 38 C-44.67 37.01 -44.34 36.02 -44 35 C-41.84765625 33.01953125 -41.84765625 33.01953125 -39.0625 30.8125 C-38.05960937 30.01199219 -37.05671875 29.21148437 -36.0234375 28.38671875 C-35.02570313 27.59910156 -34.02796875 26.81148437 -33 26 C-31.39549409 24.70875477 -29.79131168 23.41710742 -28.1875 22.125 C-22.93221218 17.93248535 -17.64981622 13.77474965 -12.3515625 9.63671875 C-10.28170981 8.01726694 -8.24165784 6.37654503 -6.2109375 4.70703125 C-5.41945313 4.06121094 -4.62796875 3.41539063 -3.8125 2.75 C-2.80123047 1.90695313 -2.80123047 1.90695313 -1.76953125 1.046875 C-1.18558594 0.70140625 -0.60164063 0.3559375 0 0 Z " fill="#060606" transform="translate(404,59)"/>
<path d="M0 0 C0.495 0.99 0.495 0.99 1 2 C-0.22198444 3.58888299 -1.45294475 5.17086464 -2.6875 6.75 C-3.37199219 7.63171875 -4.05648437 8.5134375 -4.76171875 9.421875 C-6.9983744 11.99812758 -9.31647365 13.90594257 -12 16 C-13.68873879 17.64429829 -15.35305515 19.31384218 -17 21 C-18.12364865 22.12634973 -19.24874372 23.25125768 -20.375 24.375 C-20.96796875 24.96796875 -21.5609375 25.5609375 -22.171875 26.171875 C-60 64 -60 64 -62.73901367 66.72314453 C-64.70929662 68.70725627 -66.52051257 70.73172968 -68.3125 72.875 C-71.34926519 76.39685023 -74.61754221 79.40485478 -78.203125 82.359375 C-80.37208565 84.2374659 -80.37208565 84.2374659 -83 88 C26.89 88 136.78 88 250 88 C250 88.33 250 88.66 250 89 C240.70689326 89.77765735 231.50501859 90.1364659 222.18145752 90.08901978 C220.86416995 90.08649621 219.54688238 90.08397265 218.189677 90.08137262 C214.57664117 90.07429758 210.9636547 90.06082276 207.35064268 90.04618168 C203.43807677 90.0314722 199.52549652 90.02281547 195.61291504 90.01335144 C187.96864706 89.99389319 180.32440739 89.96884466 172.68016306 89.9417484 C166.47056482 89.91984371 160.26096312 89.9000089 154.05135345 89.88163376 C153.16571216 89.87901163 152.28007087 89.8763895 151.36759196 89.87368792 C149.56826492 89.86837013 147.76893786 89.86305734 145.96961078 89.85774951 C129.13323983 89.80784791 112.29689469 89.75160705 95.46055159 89.69314377 C81.0072422 89.6431001 66.5539243 89.59840958 52.10058594 89.55761719 C35.3034898 89.51020677 18.50640845 89.45959967 1.70933795 89.40379179 C-0.0794889 89.39785663 -1.86831576 89.39192528 -3.65714264 89.38599777 C-4.53724667 89.38307939 -5.41735071 89.380161 -6.32412456 89.37715418 C-12.53399787 89.35678158 -18.74387544 89.33870083 -24.95375824 89.32149124 C-32.50935993 89.30048654 -40.06494022 89.27595602 -47.6205152 89.24684478 C-51.47696558 89.23207462 -55.33340391 89.2189197 -59.18987274 89.21003914 C-63.3617009 89.20037846 -67.5334613 89.18307805 -71.70526123 89.16494751 C-72.93498933 89.16328728 -74.16471742 89.16162706 -75.43171 89.15991652 C-76.5417449 89.15382538 -77.6517798 89.14773423 -78.79545212 89.14145851 C-79.75918771 89.1382584 -80.72292329 89.13505828 -81.71586299 89.13176119 C-84 89 -84 89 -86 88 C-84.60961241 84.86650313 -82.9925774 82.74483836 -80.57052612 80.33001709 C-79.86098785 79.61772949 -79.15144958 78.90544189 -78.42041016 78.17156982 C-77.64213867 77.40048889 -76.86386719 76.62940796 -76.06201172 75.83496094 C-74.83262375 74.60513489 -74.83262375 74.60513489 -73.57839966 73.35046387 C-70.86687568 70.64033376 -68.14833508 67.93735752 -65.4296875 65.234375 C-63.5488083 63.35722571 -61.66832513 61.479688 -59.7883606 59.60162354 C-55.34417974 55.16365594 -50.89492578 50.73081075 -46.44382393 46.29978585 C-41.37584024 41.25416591 -36.31354229 36.20285784 -31.25171256 31.15106535 C-20.84078771 20.76103903 -10.42274494 10.37816928 0 0 Z " fill="#3B3B3B" transform="translate(144,185)"/>
<path d="M0 0 C0.495 0.99 0.495 0.99 1 2 C-0.22198444 3.58888299 -1.45294475 5.17086464 -2.6875 6.75 C-3.37199219 7.63171875 -4.05648437 8.5134375 -4.76171875 9.421875 C-6.9983744 11.99812758 -9.31647365 13.90594257 -12 16 C-13.68873879 17.64429829 -15.35305515 19.31384218 -17 21 C-18.12364865 22.12634973 -19.24874372 23.25125768 -20.375 24.375 C-20.96796875 24.96796875 -21.5609375 25.5609375 -22.171875 26.171875 C-60 64 -60 64 -62.73901367 66.72314453 C-64.70929662 68.70725627 -66.52051257 70.73172968 -68.3125 72.875 C-71.34926519 76.39685023 -74.61754221 79.40485478 -78.203125 82.359375 C-80.0945434 84.08632224 -81.52800067 85.91012441 -83 88 C-82.01 88.33 -81.02 88.66 -80 89 C-81.98 88.67 -83.96 88.34 -86 88 C-84.60961241 84.86650313 -82.9925774 82.74483836 -80.57052612 80.33001709 C-79.86098785 79.61772949 -79.15144958 78.90544189 -78.42041016 78.17156982 C-77.64213867 77.40048889 -76.86386719 76.62940796 -76.06201172 75.83496094 C-74.83262375 74.60513489 -74.83262375 74.60513489 -73.57839966 73.35046387 C-70.86687568 70.64033376 -68.14833508 67.93735752 -65.4296875 65.234375 C-63.5488083 63.35722571 -61.66832513 61.479688 -59.7883606 59.60162354 C-55.34417974 55.16365594 -50.89492578 50.73081075 -46.44382393 46.29978585 C-41.37584024 41.25416591 -36.31354229 36.20285784 -31.25171256 31.15106535 C-20.84078771 20.76103903 -10.42274494 10.37816928 0 0 Z " fill="#494949" transform="translate(144,185)"/>
<path d="M0 0 C18.48 0 36.96 0 56 0 C55.67 1.32 55.34 2.64 55 4 C54.34 4.33 53.68 4.66 53 5 C52.505 3.515 52.505 3.515 52 2 C34.84 1.67 17.68 1.34 0 1 C0 0.67 0 0.34 0 0 Z " fill="#181818" transform="translate(338,47)"/>
<path d="M0 0 C-1.34682422 3.00818118 -2.83981515 5.07877739 -5.1875 7.3828125 C-5.80367187 7.99253906 -6.41984375 8.60226563 -7.0546875 9.23046875 C-7.69664062 9.85566406 -8.33859375 10.48085937 -9 11.125 C-9.64195312 11.75792969 -10.28390625 12.39085937 -10.9453125 13.04296875 C-12.13445857 14.21470055 -13.32564804 15.3843648 -14.51953125 16.55126953 C-15.68685465 17.69356786 -16.84512135 18.84512135 -18 20 C-19.64991582 20.70710678 -21.31562256 21.37943989 -23 22 C-18.63178152 16.78391303 -14.05759125 11.87481383 -9.25 7.0625 C-8.57839844 6.37865234 -7.90679687 5.69480469 -7.21484375 4.99023438 C-6.57160156 4.34505859 -5.92835938 3.69988281 -5.265625 3.03515625 C-4.68586914 2.4512915 -4.10611328 1.86742676 -3.50878906 1.26586914 C-2 0 -2 0 0 0 Z " fill="#565656" transform="translate(170,161)"/>
<path d="M0 0 C0.33 0.66 0.66 1.32 1 2 C-0.21267381 3.658023 -1.44583619 5.30107431 -2.6875 6.9375 C-3.37199219 7.85402344 -4.05648437 8.77054688 -4.76171875 9.71484375 C-7.23725656 12.24222529 -8.53375469 12.71468734 -12 13 C-8.19524578 8.43969176 -4.25030379 4.14910608 0 0 Z " fill="#595959" transform="translate(144,185)"/>
<path d="M0 0 C0.66 0.33 1.32 0.66 2 1 C-1.16459669 5.61503684 -4.99466898 8.58469653 -10 11 C-10.99 11 -11.98 11 -13 11 C-8.69722998 7.29554415 -4.37051203 3.62432705 0 0 Z " fill="#929292" transform="translate(387,72)"/>
<path d="M0 0 C0.99 0.33 1.98 0.66 3 1 C1.68 2.65 0.36 4.3 -1 6 C-0.01 6.33 0.98 6.66 2 7 C-0.97 6.505 -0.97 6.505 -4 6 C-2.84826645 3.53199953 -1.95216435 1.95216435 0 0 Z " fill="#555555" transform="translate(62,267)"/>
<path d="M0 0 C0.99 0.33 1.98 0.66 3 1 C1.35 2.65 -0.3 4.3 -2 6 C-2.99 5.67 -3.98 5.34 -5 5 C-3.35 3.35 -1.7 1.7 0 0 Z " fill="#4A4A4A" transform="translate(68,261)"/>
<path d="M0 0 C0.66 0.33 1.32 0.66 2 1 C0.02 2.98 -1.96 4.96 -4 7 C-4.99 6.67 -5.98 6.34 -7 6 C-4.69 4.02 -2.38 2.04 0 0 Z " fill="#5D5D5D" transform="translate(402,60)"/>
</svg>
