<?xml version="1.0" encoding="UTF-8"?>
<svg version="1.1" xmlns="http://www.w3.org/2000/svg" width="360" height="360">
<path d="M0 0 C0.76730942 -0.00807175 1.53461884 -0.01614349 2.32518005 -0.02445984 C3.94991825 -0.03827044 5.5746851 -0.04900608 7.19946289 -0.05688477 C8.8431055 -0.06835392 10.48671238 -0.08872473 12.13012695 -0.1184082 C28.29883176 -0.41007384 40.21443931 2.62710587 52.30859375 13.98828125 C59.24863804 21.26012049 65.12109375 30.90524638 65.12109375 41.23828125 C65.84296875 41.27953125 66.56484375 41.32078125 67.30859375 41.36328125 C71.28717571 42.6010623 72.72854199 44.9152927 75.12109375 48.23828125 C76.68420887 52.92762662 76.64430954 56.7558365 74.99609375 61.42578125 C72.74540525 64.801814 70.71236349 66.37082098 67.12109375 68.23828125 C64.24609375 68.48828125 64.24609375 68.48828125 62.12109375 68.23828125 C62.12109375 71.20828125 62.12109375 74.17828125 62.12109375 77.23828125 C63.50296875 77.32078125 64.88484375 77.40328125 66.30859375 77.48828125 C70.69787312 77.99818184 73.08965711 78.850205 76.12109375 82.23828125 C80.17739028 88.67240679 79.88118722 95.83377525 79.12109375 103.23828125 C77.84900118 107.9169946 75.91750246 110.5303624 72.30859375 113.73828125 C68.64870788 115.46058049 66.11938174 115.55814429 62.12109375 115.23828125 C62.0953125 115.83253906 62.06953125 116.42679687 62.04296875 117.0390625 C61.22810876 128.94713008 56.95985213 138.23173764 49.12109375 147.23828125 C47.48770582 148.6121806 45.8289499 149.95813168 44.12109375 151.23828125 C44.32605469 151.82996094 44.53101563 152.42164063 44.7421875 153.03125 C45.01160156 153.82144531 45.28101563 154.61164063 45.55859375 155.42578125 C45.82542969 156.20308594 46.09226563 156.98039063 46.3671875 157.78125 C47.12536228 160.25219268 47.63164519 162.70238361 48.12109375 165.23828125 C49.43376221 165.21471558 49.43376221 165.21471558 50.77294922 165.19067383 C84.80897721 164.66060821 113.28806985 167.58148089 139.30859375 192.05078125 C150.17733301 203.270125 157.45083597 218.67035803 157.39575195 234.35083008 C157.40341835 235.50115219 157.40341835 235.50115219 157.41123962 236.67471313 C157.42501691 239.18166131 157.42418925 241.68833125 157.421875 244.1953125 C157.42576576 245.94789226 157.43010121 247.70047109 157.43486023 249.45304871 C157.44229481 253.11187817 157.44204928 256.77061105 157.43676758 260.42944336 C157.43094733 265.12158821 157.4479785 269.81334159 157.47111225 274.50542164 C157.4858203 278.11789769 157.48672581 281.73027848 157.48360252 285.34277916 C157.48411625 287.07357248 157.48936367 288.80437106 157.49941444 290.53513527 C157.51171796 292.94792157 157.50502672 295.35993171 157.4934082 297.77270508 C157.50105194 298.48805923 157.50869568 299.20341339 157.51657104 299.94044495 C157.46509965 304.76360691 157.46509965 304.76360691 155.90136528 306.92131579 C153.56331276 308.65090274 152.15794969 308.61418763 149.26252747 308.61580467 C148.25518649 308.62362791 147.24784552 308.63145116 146.20997906 308.63951147 C145.10017083 308.6328193 143.99036261 308.62612714 142.84692383 308.61923218 C141.67041417 308.62391215 140.49390451 308.62859212 139.28174305 308.63341391 C136.01054629 308.64333204 132.73968163 308.63973212 129.46849298 308.63045526 C125.94287473 308.62368453 122.41730234 308.63413614 118.89169312 308.64239502 C111.98284577 308.65575576 105.07409603 308.65284424 98.16524482 308.6441571 C92.55177492 308.63739014 86.93833243 308.63645954 81.32485962 308.63972855 C80.12781252 308.64041809 80.12781252 308.64041809 78.90658265 308.64112157 C77.28554844 308.64208072 75.66451424 308.64305336 74.04348004 308.64403935 C58.8323756 308.6526001 43.62132535 308.64274839 28.4102298 308.62663825 C15.34995679 308.61323444 2.28976376 308.61556234 -10.77050781 308.62939453 C-25.92607218 308.64543827 -41.08158901 308.65177606 -56.23716068 308.64255774 C-57.85233115 308.64160206 -59.46750163 308.64065895 -61.08267212 308.63972855 C-62.27480711 308.63903431 -62.27480711 308.63903431 -63.49102563 308.63832604 C-69.09969069 308.63573253 -74.70832568 308.64011492 -80.31698608 308.64716721 C-87.14930969 308.65556903 -93.98152987 308.65332994 -100.81384158 308.63732497 C-104.30180096 308.62942439 -107.78958771 308.62638082 -111.27754593 308.63627243 C-115.0534507 308.64441686 -118.82886329 308.63425201 -122.60473633 308.61923218 C-123.71454455 308.62592434 -124.82435278 308.63261651 -125.96779156 308.63951147 C-126.97513253 308.63168822 -127.98247351 308.62386498 -129.02033997 308.61580467 C-129.89245023 308.61531762 -130.76456049 308.61483056 -131.66309834 308.61432874 C-134.3830288 308.15272599 -135.27023472 307.45369521 -136.87890625 305.23828125 C-137.18015605 302.69541376 -137.29914552 300.39599791 -137.28295898 297.85205078 C-137.28982224 297.10196243 -137.29668549 296.35187408 -137.30375671 295.57905579 C-137.32209027 293.09287684 -137.31817346 290.60732601 -137.3125 288.12109375 C-137.31706316 286.38532304 -137.32236913 284.64955413 -137.3283844 282.91378784 C-137.33733167 279.26699516 -137.33487934 275.62042117 -137.32495117 271.97363281 C-137.3135398 267.33263676 -137.33354302 262.69241049 -137.36286831 258.05151558 C-137.38136307 254.46004536 -137.3809103 250.86875436 -137.37523079 247.27724838 C-137.37507876 245.56867275 -137.3810241 243.86008403 -137.39352226 242.15155411 C-137.51904782 222.15357605 -132.01132011 205.47093624 -117.6875 190.953125 C-96.73182024 170.69693942 -71.45268375 164.77036899 -43.00390625 165.11328125 C-41.52604785 165.12334796 -40.04818267 165.13246718 -38.5703125 165.140625 C-35.00636597 165.16230754 -31.4426821 165.19662589 -27.87890625 165.23828125 C-27.3913469 163.80272123 -26.90611914 162.3663692 -26.421875 160.9296875 C-26.15141357 160.12990479 -25.88095215 159.33012207 -25.60229492 158.50610352 C-24.83645716 156.10520341 -24.2801946 153.72626902 -23.87890625 151.23828125 C-25.14734375 150.31015625 -25.14734375 150.31015625 -26.44140625 149.36328125 C-35.3890429 141.83288256 -40.42833523 131.05354953 -41.62890625 119.55078125 C-41.72720854 118.11422726 -41.81649583 116.67684151 -41.87890625 115.23828125 C-42.91015625 115.32078125 -43.94140625 115.40328125 -45.00390625 115.48828125 C-49.66625823 115.18748435 -51.40071891 114.33000333 -54.87890625 111.23828125 C-59.38313071 105.68818424 -59.47718042 99.51291712 -59.26953125 92.59375 C-58.62746715 87.07841935 -56.79211936 83.43493334 -53.19140625 79.30078125 C-49.51887938 77.61340404 -45.89634621 77.53368125 -41.87890625 77.23828125 C-41.87890625 74.26828125 -41.87890625 71.29828125 -41.87890625 68.23828125 C-42.93078125 68.15578125 -43.98265625 68.07328125 -45.06640625 67.98828125 C-49.24353625 67.16655076 -50.93995292 66.26120467 -53.87890625 63.23828125 C-56.132626 59.26744168 -56.27447059 55.74771471 -55.87890625 51.23828125 C-54.14597015 46.58671592 -52.0451077 43.94631219 -47.87890625 41.23828125 C-46.88890625 41.23828125 -45.89890625 41.23828125 -44.87890625 41.23828125 C-44.74935547 40.32949219 -44.74935547 40.32949219 -44.6171875 39.40234375 C-42.37707879 26.04389733 -35.43836775 16.2518355 -24.87890625 7.86328125 C-17.06331242 2.345472 -9.47308282 0.09555743 0 0 Z M-25.26953125 25.13671875 C-28.75388507 29.68667592 -31.87890625 35.43800085 -31.87890625 41.23828125 C-4.15890625 41.23828125 23.56109375 41.23828125 52.12109375 41.23828125 C50.50535324 31.54383818 45.93615152 24.28737319 38.12109375 18.23828125 C28.86930331 13.00900839 20.88379868 12.0392268 10.43359375 11.98828125 C9.39525391 11.96765625 8.35691406 11.94703125 7.28710938 11.92578125 C-5.66301913 11.86082763 -16.22385907 15.71760139 -25.26953125 25.13671875 Z M-42.87890625 53.23828125 C-42.87890625 53.89828125 -42.87890625 54.55828125 -42.87890625 55.23828125 C-7.89890625 55.23828125 27.08109375 55.23828125 63.12109375 55.23828125 C63.12109375 54.57828125 63.12109375 53.91828125 63.12109375 53.23828125 C28.14109375 53.23828125 -6.83890625 53.23828125 -42.87890625 53.23828125 Z M-28.87890625 68.23828125 C-28.98203125 76.73578125 -29.08515625 85.23328125 -29.19140625 93.98828125 C-29.23692627 96.64600586 -29.28244629 99.30373047 -29.3293457 102.04199219 C-29.3439701 104.1855341 -29.35670613 106.32909007 -29.3671875 108.47265625 C-29.39276733 109.55562988 -29.41834717 110.63860352 -29.44470215 111.75439453 C-29.44998024 121.14094521 -26.81293427 128.66464934 -21.75390625 136.55078125 C-10.33739332 147.22273899 0.76525368 148.82322274 15.76953125 148.55078125 C25.25733977 148.15641443 33.31826925 144.96651338 40.12109375 138.23828125 C47.67032003 128.99047906 49.57674935 120.55965418 49.4140625 108.86328125 C49.41104126 107.82945312 49.40802002 106.795625 49.40490723 105.73046875 C49.38931075 101.8996368 49.34742736 98.06894811 49.30859375 94.23828125 C49.24671875 85.65828125 49.18484375 77.07828125 49.12109375 68.23828125 C23.38109375 68.23828125 -2.35890625 68.23828125 -28.87890625 68.23828125 Z M-45.87890625 90.23828125 C-45.87890625 94.19828125 -45.87890625 98.15828125 -45.87890625 102.23828125 C-44.55890625 102.56828125 -43.23890625 102.89828125 -41.87890625 103.23828125 C-41.87890625 98.94828125 -41.87890625 94.65828125 -41.87890625 90.23828125 C-43.19890625 90.23828125 -44.51890625 90.23828125 -45.87890625 90.23828125 Z M62.12109375 90.23828125 C62.12109375 94.52828125 62.12109375 98.81828125 62.12109375 103.23828125 C63.44109375 102.90828125 64.76109375 102.57828125 66.12109375 102.23828125 C66.12109375 98.27828125 66.12109375 94.31828125 66.12109375 90.23828125 C64.80109375 90.23828125 63.48109375 90.23828125 62.12109375 90.23828125 Z M-11.87890625 158.23828125 C-12.07411865 158.77308105 -12.26933105 159.30788086 -12.47045898 159.85888672 C-13.38261916 162.29254804 -14.34833746 164.70134426 -15.31640625 167.11328125 C-15.62255859 167.95503906 -15.92871094 168.79679688 -16.24414062 169.6640625 C-18.74578358 175.73601142 -18.74578358 175.73601142 -22.17236328 177.25488281 C-24.42533496 177.75554319 -26.57761572 178.0897708 -28.87890625 178.23828125 C-20.02840424 189.37972344 -8.88346187 195.9156176 5.34765625 198.015625 C18.84931904 199.09956131 31.59660934 194.71917645 42.12109375 186.23828125 C44.58070086 184.01596462 46.9628112 181.7574342 49.12109375 179.23828125 C49.12109375 178.90828125 49.12109375 178.57828125 49.12109375 178.23828125 C48.52433838 178.19977051 47.92758301 178.16125977 47.31274414 178.12158203 C40.97431916 177.29720739 40.97431916 177.29720739 38.62841797 174.38574219 C37.43937068 171.99947195 36.46979812 169.61861369 35.55859375 167.11328125 C35.21763672 166.26378906 34.87667969 165.41429687 34.52539062 164.5390625 C33.6917282 162.44903558 32.89259518 160.35187039 32.12109375 158.23828125 C31.49847656 158.38265625 30.87585938 158.52703125 30.234375 158.67578125 C16.57569764 161.41894658 1.67026361 161.55091786 -11.87890625 158.23828125 Z M-62.87890625 178.23828125 C-59.92013843 191.36128674 -56.42354228 204.24128248 -52.87890625 217.23828125 C-11.29890625 217.23828125 30.28109375 217.23828125 73.12109375 217.23828125 C79.87186481 197.97070237 79.87186481 197.97070237 83.12109375 178.23828125 C71.64405247 176.62765248 71.64405247 176.62765248 61.359375 180.40625 C59.41271947 183.26897873 57.76303587 186.19241811 56.12109375 189.23828125 C47.60052741 200.12249463 33.59575968 207.09580937 20.12109375 209.23828125 C2.36228023 210.75597227 -13.19165273 208.18327417 -27.67578125 197.09765625 C-34.085498 191.5425684 -39.18775363 185.27501018 -43.87890625 178.23828125 C-45.90777936 177.82348018 -45.90777936 177.82348018 -48.23046875 177.9453125 C-49.50664063 177.95981445 -49.50664063 177.95981445 -50.80859375 177.97460938 C-52.14277344 178.01231445 -52.14277344 178.01231445 -53.50390625 178.05078125 C-54.8496875 178.07108398 -54.8496875 178.07108398 -56.22265625 178.09179688 C-58.44200414 178.127212 -60.66015813 178.17659664 -62.87890625 178.23828125 Z M95.12109375 181.23828125 C93.83448013 185.88172454 92.55286847 190.52650819 91.27587891 195.17260742 C90.84072993 196.75306462 90.40421487 198.33314635 89.96630859 199.9128418 C89.3372243 202.18310858 88.71306006 204.45467889 88.08984375 206.7265625 C87.79454773 207.78608879 87.79454773 207.78608879 87.49328613 208.86701965 C86.70558289 211.75427432 86.12109375 214.22969716 86.12109375 217.23828125 C89.75109375 217.23828125 93.38109375 217.23828125 97.12109375 217.23828125 C99.61845606 210.89708719 101.56999979 204.49627695 103.37109375 197.92578125 C103.65210938 196.93771484 103.933125 195.94964844 104.22265625 194.93164062 C104.48304688 193.98482422 104.7434375 193.03800781 105.01171875 192.0625 C105.24922852 191.20744873 105.48673828 190.35239746 105.73144531 189.47143555 C106.33116167 187.07750639 106.33116167 187.07750639 105.12109375 184.23828125 C102.79218279 183.21127681 102.79218279 183.21127681 100.05859375 182.55078125 C99.13949219 182.29941406 98.22039062 182.04804688 97.2734375 181.7890625 C96.56316406 181.60730469 95.85289062 181.42554688 95.12109375 181.23828125 Z M-80.94140625 183.23828125 C-81.86050781 183.60953125 -82.77960938 183.98078125 -83.7265625 184.36328125 C-84.43683594 184.65203125 -85.14710937 184.94078125 -85.87890625 185.23828125 C-83.863547 193.39619823 -81.82641384 201.54824071 -79.69140625 209.67578125 C-79.36785156 210.91199219 -79.04429688 212.14820313 -78.7109375 213.421875 C-78.15822517 216.11822813 -78.15822517 216.11822813 -76.87890625 217.23828125 C-75.02603123 217.31054627 -73.17056747 217.32209345 -71.31640625 217.30078125 C-70.30449219 217.29175781 -69.29257813 217.28273437 -68.25 217.2734375 C-67.46753906 217.26183594 -66.68507813 217.25023437 -65.87890625 217.23828125 C-67.33006724 209.24204138 -69.35542552 201.44737562 -71.50390625 193.61328125 C-71.82875 192.41832031 -72.15359375 191.22335938 -72.48828125 189.9921875 C-73.28219234 187.07339672 -74.07912527 184.155468 -74.87890625 181.23828125 C-76.95773794 181.23828125 -79.0517632 182.47285622 -80.94140625 183.23828125 Z M117.12109375 191.23828125 C116.11275305 194.81932099 115.11588289 198.4034555 114.12109375 201.98828125 C113.83492187 203.0040625 113.54875 204.01984375 113.25390625 205.06640625 C112.98320312 206.04609375 112.7125 207.02578125 112.43359375 208.03515625 C112.18222656 208.93588867 111.93085938 209.83662109 111.671875 210.76464844 C110.97620144 213.46664382 110.97620144 213.46664382 111.12109375 217.23828125 C113.00828125 217.33109375 113.00828125 217.33109375 114.93359375 217.42578125 C117.078125 217.53125 117.078125 217.53125 119.12109375 218.23828125 C122.22931801 222.2965049 122.50997769 225.47104138 122.5534668 230.50708008 C122.56365845 231.21982086 122.5738501 231.93256165 122.58435059 232.66690063 C122.61441162 235.00978527 122.62373563 237.35226058 122.6328125 239.6953125 C122.64966436 241.32485811 122.66781529 242.95439076 122.68721008 244.58390808 C122.73466138 248.86310781 122.76450211 253.14225499 122.79064941 257.42163086 C122.8204796 261.7922605 122.86700147 266.16270918 122.91210938 270.53320312 C122.99808721 279.10148853 123.06391338 287.66975522 123.12109375 296.23828125 C130.38109375 296.23828125 137.64109375 296.23828125 145.12109375 296.23828125 C145.18924259 288.10096049 145.24412274 279.96386673 145.27653027 271.82633591 C145.29209499 268.04654979 145.31316184 264.26697134 145.34741211 260.48730469 C145.38033796 256.83033497 145.39801562 253.17356327 145.40572548 249.5164566 C145.4112101 248.13079975 145.42191754 246.74515204 145.43828392 245.35958099 C145.63798495 227.72971015 141.45021007 213.22047256 129.24267578 200.27246094 C125.79224993 196.74978106 122.32774489 193.79885151 118.12109375 191.23828125 C117.79109375 191.23828125 117.46109375 191.23828125 117.12109375 191.23828125 Z M-109.23046875 200.4375 C-122.38398143 214.11082504 -125.2176681 228.85485151 -125.07421875 247.21484375 C-125.07047999 248.63544514 -125.06763711 250.05604914 -125.06564331 251.47665405 C-125.05807464 255.18214267 -125.03848595 258.88746986 -125.01623535 262.59289551 C-124.99562952 266.38742897 -124.98661036 270.18198899 -124.9765625 273.9765625 C-124.95523228 281.39721688 -124.92010702 288.81770571 -124.87890625 296.23828125 C-117.28890625 296.23828125 -109.69890625 296.23828125 -101.87890625 296.23828125 C-101.85908691 293.94648926 -101.83926758 291.65469727 -101.81884766 289.29345703 C-101.75203456 281.7336701 -101.674394 274.17402257 -101.59137917 266.61439705 C-101.54136632 262.02958343 -101.49503692 257.44479341 -101.45703125 252.85986328 C-101.42024121 248.43774446 -101.37389879 244.01582079 -101.32084274 239.59386826 C-101.30226527 237.90415738 -101.28716979 236.21440463 -101.27556229 234.5246315 C-101.25875683 232.16351451 -101.22973667 229.80284774 -101.19775391 227.44189453 C-101.19559372 226.73842896 -101.19343353 226.03496338 -101.19120789 225.31018066 C-101.10701057 220.46638557 -101.10701057 220.46638557 -98.87890625 218.23828125 C-96.22353253 217.67308122 -93.58745912 217.50039927 -90.87890625 217.23828125 C-91.48388583 211.17457783 -92.74220905 205.58313883 -94.44140625 199.73828125 C-94.67537109 198.91585937 -94.90933594 198.0934375 -95.15039062 197.24609375 C-95.72132697 195.24199067 -96.2993733 193.23991534 -96.87890625 191.23828125 C-100.89509363 191.23828125 -106.47302591 197.85869549 -109.23046875 200.4375 Z M-89.87890625 230.23828125 C-89.87890625 252.01828125 -89.87890625 273.79828125 -89.87890625 296.23828125 C-23.87890625 296.23828125 42.12109375 296.23828125 110.12109375 296.23828125 C110.12109375 274.45828125 110.12109375 252.67828125 110.12109375 230.23828125 C44.12109375 230.23828125 -21.87890625 230.23828125 -89.87890625 230.23828125 Z " fill="#0E0E0E" transform="translate(169.87890625,25.76171875)"/>
<path d="M0 0 C1.82421875 1.57421875 1.82421875 1.57421875 3 3 C3 3.66 3 4.32 3 5 C28.74 5 54.48 5 81 5 C81.66 3.68 82.32 2.36 83 1 C85.27734375 -0.66796875 85.27734375 -0.66796875 87.9375 -2.1875 C88.81277344 -2.69667969 89.68804687 -3.20585937 90.58984375 -3.73046875 C97.5210016 -7.38140279 108.89674229 -7.35994412 116.375 -5.0625 C123.19447515 -1.88817861 129.62852126 4.32126116 133 11 C133.63487388 17.13711417 133.63487388 17.13711417 131.75463867 19.69262695 C129.52680277 21.35257703 128.30734568 21.34847005 125.55078125 21.29296875 C124.70322266 21.28330078 123.85566406 21.27363281 122.98242188 21.26367188 C121.66081055 21.2259668 121.66081055 21.2259668 120.3125 21.1875 C119.41982422 21.17396484 118.52714844 21.16042969 117.60742188 21.14648438 C115.40433834 21.11114079 113.20247418 21.06180493 111 21 C111 23.64 111 26.28 111 29 C111.59538574 28.98428955 112.19077148 28.9685791 112.80419922 28.95239258 C115.49437003 28.89014199 118.18438957 28.85104217 120.875 28.8125 C122.28072266 28.77479492 122.28072266 28.77479492 123.71484375 28.73632812 C125.05869141 28.72182617 125.05869141 28.72182617 126.4296875 28.70703125 C127.25710449 28.6913208 128.08452148 28.67561035 128.93701172 28.65942383 C129.95819092 28.82800903 129.95819092 28.82800903 131 29 C133.41694329 32.62541494 133.63483571 33.71485893 133 38 C129.41505603 45.35440712 124.13700276 50.77677257 116.6171875 54.03125 C107.51646744 57.11237152 99.84241753 56.67622145 90.8359375 53.55859375 C88 52 88 52 86.57510376 50.34922791 C82.9548444 46.28452337 79.86935411 44.60107269 74.37967491 44.1757288 C70.54203707 44.02942099 66.71469799 44.03208515 62.875 44.0703125 C61.20165315 44.06558981 59.52831099 44.05879009 57.85498047 44.05001831 C54.35793063 44.03973186 50.8621374 44.05458521 47.36523438 44.08740234 C42.89915952 44.12728891 38.43602924 44.10430653 33.97006226 44.0623951 C30.51759958 44.0370089 27.06582659 44.04519134 23.61334229 44.06328964 C21.96762741 44.06793435 20.32184837 44.06231647 18.6762085 44.04593277 C8.17599731 43.71372409 8.17599731 43.71372409 -0.83984375 48.44091797 C-1.38503662 49.06046356 -1.93022949 49.68000916 -2.49194336 50.31832886 C-6.32070483 54.58787518 -12.45227769 55.70966744 -17.95703125 56.16015625 C-27.30945034 56.53687366 -34.84246725 53.98944241 -42.015625 47.9609375 C-45.99075864 44.03275425 -48.69811724 40.28568374 -49.4375 34.6875 C-49 32 -49 32 -47 29 C-44.93701172 28.65942383 -44.93701172 28.65942383 -42.4296875 28.70703125 C-41.53378906 28.71669922 -40.63789062 28.72636719 -39.71484375 28.73632812 C-38.30912109 28.7740332 -38.30912109 28.7740332 -36.875 28.8125 C-35.45767578 28.83280273 -35.45767578 28.83280273 -34.01171875 28.85351562 C-31.67391221 28.88893694 -29.33723763 28.93832729 -27 29 C-27 26.36 -27 23.72 -27 21 C-27.55985596 21.01571045 -28.11971191 21.0314209 -28.6965332 21.04760742 C-31.2350859 21.10999848 -33.77347729 21.14900218 -36.3125 21.1875 C-37.19357422 21.21263672 -38.07464844 21.23777344 -38.98242188 21.26367188 C-40.25375977 21.27817383 -40.25375977 21.27817383 -41.55078125 21.29296875 C-42.33106689 21.3086792 -43.11135254 21.32438965 -43.9152832 21.34057617 C-46.56086897 20.90837192 -47.40952746 20.12670489 -49 18 C-49.61405278 14.5203676 -49.61344534 12.12682513 -47.8984375 8.9765625 C-36.15352111 -7.41607482 -16.96587489 -11.56380527 0 0 Z M-27 8 C-26.38511719 8.09796875 -25.77023438 8.1959375 -25.13671875 8.296875 C-24.32847656 8.44640625 -23.52023438 8.5959375 -22.6875 8.75 C-21.88699219 8.88921875 -21.08648437 9.0284375 -20.26171875 9.171875 C-17.36233235 10.23348107 -16.601341 11.38637563 -15 14 C-14.64355469 16.31835938 -14.64355469 16.31835938 -14.671875 18.84375 C-14.67703125 19.76027344 -14.6821875 20.67679687 -14.6875 21.62109375 C-14.708125 22.57113281 -14.72875 23.52117187 -14.75 24.5 C-14.75515625 25.45003906 -14.7603125 26.40007812 -14.765625 27.37890625 C-14.81221406 31.51950879 -14.98772863 34.95091453 -16 39 C-19.96 39.66 -23.92 40.32 -28 41 C-23.91598942 43.72267372 -20.79301092 43.61468809 -16 43 C-11.22800965 41.55630002 -8.17642517 39.45982762 -5.30223083 35.40525818 C-2.99889579 32.65770538 -1.57268005 31.51041317 2.01524353 31.10438538 C3.55894965 31.06010869 5.1040486 31.05375302 6.64819336 31.07836914 C7.49613968 31.06449661 8.344086 31.05062408 9.21772766 31.03633118 C12.00942564 31.0005422 14.79802184 31.01592115 17.58984375 31.03515625 C19.53748868 31.02789667 21.4851273 31.01870712 23.43275452 31.00767517 C27.51081124 30.99285894 31.58779618 31.00381046 35.66577148 31.0324707 C40.88313744 31.06673862 46.09750945 31.03342687 51.31462765 30.98026371 C55.33578803 30.94740194 59.35623775 30.95235631 63.37747383 30.9684124 C65.30035014 30.97122646 67.22328463 30.96195483 69.14603996 30.94020271 C84.20923331 30.79954709 84.20923331 30.79954709 88.65457153 33.7795105 C90.52172852 35.93920898 90.52172852 35.93920898 91.83253479 38.09080505 C93.82491468 41.3490106 96.44277206 42.01869574 100 43 C104.78938343 43.48854915 107.91406192 43.72395872 112 41 C111.38511719 40.93941406 110.77023438 40.87882812 110.13671875 40.81640625 C109.32847656 40.73261719 108.52023438 40.64882813 107.6875 40.5625 C106.88699219 40.48128906 106.08648437 40.40007812 105.26171875 40.31640625 C103 40 103 40 100 39 C98.26282774 34.46977655 98.77593342 29.27823298 98.75 24.5 C98.729375 23.54996094 98.70875 22.59992188 98.6875 21.62109375 C98.67976563 20.24630859 98.67976563 20.24630859 98.671875 18.84375 C98.6625293 18.01037109 98.65318359 17.17699219 98.64355469 16.31835938 C99.08293577 13.46057667 100.04971782 12.10450693 102 10 C104.26171875 9.171875 104.26171875 9.171875 106.6875 8.75 C107.49574219 8.60046875 108.30398437 8.4509375 109.13671875 8.296875 C109.75160156 8.19890625 110.36648437 8.1009375 111 8 C106.49590029 5.37684487 102.95701538 5.84447952 98 7 C93.14021298 8.91733785 90.06257532 11.80313752 87 16 C83.83698128 17.58150936 80.43204277 17.16516341 76.95776367 17.17700195 C75.71116219 17.18685875 75.71116219 17.18685875 74.43937683 17.19691467 C71.68223994 17.21666566 68.92515756 17.22831413 66.16796875 17.23828125 C65.22724329 17.24235678 64.28651783 17.2464323 63.31728554 17.25063133 C58.33839766 17.27149956 53.35953741 17.28579813 48.38061523 17.29516602 C43.23556696 17.30623326 38.09095085 17.34063463 32.94605541 17.38033772 C28.99208263 17.40647155 25.03821332 17.41485497 21.08416176 17.41844749 C19.18753452 17.42332167 17.29091215 17.43495924 15.39436913 17.45348549 C12.73937017 17.47780883 10.08549596 17.47692455 7.43041992 17.4699707 C6.64737488 17.48278076 5.86432983 17.49559082 5.05755615 17.50878906 C0.05243215 17.46102291 -2.46978289 16.54583378 -6 13 C-6.61875 12.319375 -7.2375 11.63875 -7.875 10.9375 C-11.49108462 7.64048167 -15.344531 6.16230088 -20.1875 5.6875 C-22.98301758 5.99811306 -24.56084238 6.68901807 -27 8 Z " fill="#111111" transform="translate(138,264)"/>
<path d="M0 0 C2.64 6.27 5.28 12.54 8 19 C11.3 19.33 14.6 19.66 18 20 C18 20.99 18 21.98 18 23 C16.58217855 22.93940934 15.16555534 22.85045877 13.75 22.75 C12.96109375 22.70359375 12.1721875 22.6571875 11.359375 22.609375 C8.1570328 21.78227999 7.05542484 20.5861288 5 18 C3.80260895 15.62169576 2.74288176 13.33187578 1.75 10.875 C1.481875 10.24207031 1.21375 9.60914063 0.9375 8.95703125 C-1 4.30110013 -1 4.30110013 -1 2 C-1.62261719 2.2165625 -2.24523437 2.433125 -2.88671875 2.65625 C-9.90206938 4.76966107 -16.38769513 5.30221406 -23.6875 5.3125 C-24.56559326 5.31765625 -25.44368652 5.3228125 -26.34838867 5.328125 C-32.16469906 5.26697539 -37.36271746 4.43359465 -43 3 C-43 2.67 -43 2.34 -43 2 C-41.56333984 2.01571045 -41.56333984 2.01571045 -40.09765625 2.03173828 C-36.51192019 2.06819857 -32.92620022 2.09099426 -29.34033203 2.10986328 C-27.79440547 2.11986197 -26.24849754 2.13346538 -24.70263672 2.15087891 C-22.46837745 2.17539951 -20.23437025 2.18654451 -18 2.1953125 C-17.31945557 2.20563507 -16.63891113 2.21595764 -15.93774414 2.22659302 C-10.41570665 2.22785676 -5.35126594 0 0 0 Z " fill="#545454" transform="translate(203,182)"/>
<path d="M0 0 C0 0.66 0 1.32 0 2 C-1.37285156 2.05607422 -1.37285156 2.05607422 -2.7734375 2.11328125 C-3.96195313 2.17902344 -5.15046875 2.24476563 -6.375 2.3125 C-7.55835938 2.37050781 -8.74171875 2.42851562 -9.9609375 2.48828125 C-10.96382812 2.65714844 -11.96671875 2.82601563 -13 3 C-15.17972114 6.26958171 -15.24800193 7.21558238 -15.23046875 11 C-15.22853516 11.969375 -15.22660156 12.93875 -15.22460938 13.9375 C-15.21236328 14.948125 -15.20011719 15.95875 -15.1875 17 C-15.1865332 18.5159375 -15.1865332 18.5159375 -15.18554688 20.0625 C-15.20473492 25.6209805 -15.20473492 25.6209805 -14 31 C-14.66 31 -15.32 31 -16 31 C-18.70666074 26.30147994 -18.36777593 21.86135844 -18.375 16.5625 C-18.39949219 15.62083984 -18.42398438 14.67917969 -18.44921875 13.70898438 C-18.46743646 9.4065682 -18.40933553 6.72068694 -16.25390625 2.92578125 C-11.73604438 -0.93436762 -5.65867894 -1.8253803 0 0 Z " fill="#414141" transform="translate(254,272)"/>
<path d="M0 0 C2.31 0 4.62 0 7 0 C7 3.63 7 7.26 7 11 C5.659375 11.20625 4.31875 11.4125 2.9375 11.625 C-2.26695304 12.74494559 -5.33711531 15.25467096 -9 19 C-9.33 18.34 -9.66 17.68 -10 17 C-7.34926135 13.26933078 -5.4791108 11.17310045 -1 10 C2.3125 9.875 2.3125 9.875 5 10 C5 7.03 5 4.06 5 1 C3.35 1 1.7 1 0 1 C0 0.67 0 0.34 0 0 Z " fill="#494949" transform="translate(123,93)"/>
<path d="M0 0 C1.65 0.33 3.3 0.66 5 1 C5 5.95 5 10.9 5 16 C3.02 16 1.04 16 -1 16 C-2.87243981 14.12756019 -2.17380392 11.06340482 -2.1875 8.5625 C-2.20167969 7.38816406 -2.21585937 6.21382813 -2.23046875 5.00390625 C-2 2 -2 2 0 0 Z M-1 2 C-1 5.96 -1 9.92 -1 14 C0.32 14.33 1.64 14.66 3 15 C3 10.71 3 6.42 3 2 C1.68 2 0.36 2 -1 2 Z " fill="#4A4A4A" transform="translate(125,114)"/>
<path d="M0 0 C0.66 0.33 1.32 0.66 2 1 C1.175 1.763125 0.35 2.52625 -0.5 3.3125 C-3.70128329 7.10158955 -3.44765434 10.62980009 -3.2734375 15.4140625 C-3.03121771 17.70476965 -2.63302457 19.78960274 -2 22 C-5.16976631 19.10586554 -5.92194069 17.03428587 -6.25 12.6875 C-5.92487142 7.89185347 -4.52597883 4.69553203 -1.3125 1.125 C-0.879375 0.75375 -0.44625 0.3825 0 0 Z " fill="#545454" transform="translate(120,68)"/>
<path d="M0 0 C0 0.66 0 1.32 0 2 C-0.91523438 2.03738281 -1.83046875 2.07476562 -2.7734375 2.11328125 C-3.96195313 2.17902344 -5.15046875 2.24476563 -6.375 2.3125 C-7.55835938 2.37050781 -8.74171875 2.42851562 -9.9609375 2.48828125 C-10.96382812 2.65714844 -11.96671875 2.82601563 -13 3 C-13.99 4.485 -13.99 4.485 -15 6 C-15.66 6 -16.32 6 -17 6 C-16.05370568 3.6342642 -15.38343203 2.26018602 -13.25 0.8125 C-8.60198608 -0.86594947 -4.79200112 -1.26847088 0 0 Z " fill="#585858" transform="translate(254,272)"/>
<path d="M0 0 C0.66 0.33 1.32 0.66 2 1 C0.5484451 2.67257355 -0.91144409 4.33791758 -2.375 6 C-3.18710937 6.928125 -3.99921875 7.85625 -4.8359375 8.8125 C-5.55007812 9.534375 -6.26421875 10.25625 -7 11 C-7.66 11 -8.32 11 -9 11 C-9 11.66 -9 12.32 -9 13 C-9.66 13 -10.32 13 -11 13 C-9.46356148 9.31930113 -7.21849055 7.01224796 -4.375 4.25 C-3.55773438 3.45078125 -2.74046875 2.6515625 -1.8984375 1.828125 C-0.95871094 0.92320312 -0.95871094 0.92320312 0 0 Z " fill="#595959" transform="translate(58,211)"/>
<path d="M0 0 C0.66 0.33 1.32 0.66 2 1 C0.56974806 2.65213589 -0.86945545 4.29652589 -2.3125 5.9375 C-3.11300781 6.85402344 -3.91351563 7.77054688 -4.73828125 8.71484375 C-7 11 -7 11 -10 12 C-8.52278578 8.54798361 -6.56205999 6.35038064 -3.875 3.75 C-3.15054688 3.04359375 -2.42609375 2.3371875 -1.6796875 1.609375 C-1.12539062 1.07828125 -0.57109375 0.5471875 0 0 Z " fill="#3A3A3A" transform="translate(144,34)"/>
<path d="M0 0 C0 0.66 0 1.32 0 2 C-0.99 2.33 -1.98 2.66 -3 3 C-4.55150626 4.60148169 -4.55150626 4.60148169 -6 6.5 C-8.08135132 9.14505064 -8.69921109 9.89973703 -12 11 C-10.5611898 7.612801 -8.77880501 5.6405896 -6 3.25 C-5.29875 2.63640625 -4.5975 2.0228125 -3.875 1.390625 C-2 0 -2 0 0 0 Z " fill="#4A4A4A" transform="translate(104,261)"/>
<path d="M0 0 C3.3 0 6.6 0 10 0 C10 0.99 10 1.98 10 3 C8.5199159 2.88637738 7.04089926 2.75877092 5.5625 2.625 C4.73878906 2.55539063 3.91507813 2.48578125 3.06640625 2.4140625 C2.38449219 2.27742187 1.70257813 2.14078125 1 2 C0.67 1.34 0.34 0.68 0 0 Z " fill="#484848" transform="translate(211,202)"/>
<path d="M0 0 C3.63 0 7.26 0 11 0 C7.99382731 3.00617269 5.17618402 2.59585316 1 3 C0.67 2.01 0.34 1.02 0 0 Z " fill="#505050" transform="translate(139,202)"/>
</svg>
