<?xml version="1.0" encoding="UTF-8"?>
<svg version="1.1" xmlns="http://www.w3.org/2000/svg" width="400" height="400">
<path d="M0 0 C132 0 264 0 400 0 C400 132 400 264 400 400 C268 400 136 400 0 400 C0 268 0 136 0 0 Z M8 9 C8 135.39 8 261.78 8 392 C134.39 392 260.78 392 391 392 C391 265.61 391 139.22 391 9 C264.61 9 138.22 9 8 9 Z " fill="#D0020B" transform="translate(0,0)"/>
<path d="M0 0 C1.32 0 2.64 0 4 0 C4 0.66 4 1.32 4 2 C4.99 2.33 5.98 2.66 7 3 C7 3.66 7 4.32 7 5 C7.99 5.33 8.98 5.66 10 6 C10 6.66 10 7.32 10 8 C10.66 8 11.32 8 12 8 C12.33 8.66 12.66 9.32 13 10 C13.99 10.33 14.98 10.66 16 11 C16 11.66 16 12.32 16 13 C17.65 13.33 19.3 13.66 21 14 C21 14.66 21 15.32 21 16 C22.010625 16.12375 23.02125 16.2475 24.0625 16.375 C27.84375575 16.97519933 31.32396517 17.94970433 35 19 C37.32787927 19.36950465 39.66045145 19.71352467 42 20 C42 20.66 42 21.32 42 22 C48.27 22 54.54 22 61 22 C61 29.92 61 37.84 61 46 C60.34 46 59.68 46 59 46 C59.01160156 46.7734375 59.02320313 47.546875 59.03515625 48.34375 C59.08709845 54.33936364 58.91184156 60.07302983 58 66 C57.34 66 56.68 66 56 66 C55.67 69.96 55.34 73.92 55 78 C54.34 78 53.68 78 53 78 C52.67 80.64 52.34 83.28 52 86 C51.34 86 50.68 86 50 86 C49.938125 86.94875 49.87625 87.8975 49.8125 88.875 C49.09602693 94.01674788 46.69825425 98.61218468 44 103 C43.01 103.495 43.01 103.495 42 104 C40.96986723 105.64821244 39.96885372 107.31503702 39 109 C38.67 109.33 38.34 109.66 38 110 C41.96 110.66 45.92 111.32 50 112 C50 112.66 50 113.32 50 114 C54.29 114 58.58 114 63 114 C63 113.34 63 112.68 63 112 C63.99 112 64.98 112 66 112 C65.484375 111.0925 64.96875 110.185 64.4375 109.25 C63 106 63 106 62.875 103.875 C64.75132136 100.74779773 67.72743274 99.34374569 71 98 C73.36993033 97.44533545 75.56291579 97.19894565 78 97 C78 96.34 78 95.68 78 95 C80.97 94.505 80.97 94.505 84 94 C84 93.34 84 92.68 84 92 C86.64 91.67 89.28 91.34 92 91 C92 90.34 92 89.68 92 89 C96.455 88.505 96.455 88.505 101 88 C101.33 89.98 101.66 91.96 102 94 C102.66 94 103.32 94 104 94 C104.33 95.98 104.66 97.96 105 100 C105.66 100 106.32 100 107 100 C107.33 102.64 107.66 105.28 108 108 C108.66 108 109.32 108 110 108 C110.33 109.98 110.66 111.96 111 114 C111.66 114 112.32 114 113 114 C113 114.99 113 115.98 113 117 C113.66 117 114.32 117 115 117 C115.33 118.98 115.66 120.96 116 123 C116.66 123 117.32 123 118 123 C118.33 125.64 118.66 128.28 119 131 C119.66 131 120.32 131 121 131 C121.33 132.98 121.66 134.96 122 137 C122.66 137 123.32 137 124 137 C124.33 139.31 124.66 141.62 125 144 C125.66 144 126.32 144 127 144 C127.67305018 145.60149886 128.33822227 147.20631029 129 148.8125 C129.37125 149.70582031 129.7425 150.59914062 130.125 151.51953125 C131 154 131 154 131 157 C131.66 157 132.32 157 133 157 C133.33 159.31 133.66 161.62 134 164 C134.66 164 135.32 164 136 164 C137.125 169.75 137.125 169.75 136 172 C132.9375 172.625 132.9375 172.625 130 173 C130 173.66 130 174.32 130 175 C127.36 175.33 124.72 175.66 122 176 C122 176.66 122 177.32 122 178 C120.02 178.33 118.04 178.66 116 179 C116 179.66 116 180.32 116 181 C114.35 181 112.7 181 111 181 C111 181.66 111 182.32 111 183 C109.02 183.33 107.04 183.66 105 184 C105 184.66 105 185.32 105 186 C103.35 186 101.7 186 100 186 C99.34 184.68 98.68 183.36 98 182 C97.236875 182.33 96.47375 182.66 95.6875 183 C93 184 93 184 90 184 C90 184.66 90 185.32 90 186 C88.35 186.33 86.7 186.66 85 187 C85 187.66 85 188.32 85 189 C84.01 189.33 83.02 189.66 82 190 C81.67 193.63 81.34 197.26 81 201 C80.34 201 79.68 201 79 201 C78.9175 201.5775 78.835 202.155 78.75 202.75 C77.69419452 205.91741643 76.75555164 207.05095128 74 209 C65.54948805 210.77474403 65.54948805 210.77474403 62 209 C61.67 211.31 61.34 213.62 61 216 C60.34 216 59.68 216 59 216 C58.67 216.99 58.34 217.98 58 219 C57.34 219 56.68 219 56 219 C56 219.66 56 220.32 56 221 C52.52674819 222.1577506 49.63932552 222.06866652 46 222 C46.2165625 223.794375 46.2165625 223.794375 46.4375 225.625 C46.4574506 228.42805863 46.28707426 229.63112501 44.546875 231.8671875 C39.84061005 236 39.84061005 236 36 236 C36 236.66 36 237.32 36 238 C33.03 238 30.06 238 27 238 C26.67 240.31 26.34 242.62 26 245 C25.34 245 24.68 245 24 245 C24 245.66 24 246.32 24 247 C19.81870793 250.37200973 15.23162779 250.96256438 10 251 C7.78515625 250.640625 7.78515625 250.640625 6 250 C5.67 249.34 5.34 248.68 5 248 C2.69 248 0.38 248 -2 248 C-2 248.66 -2 249.32 -2 250 C-10.94915254 251.34237288 -10.94915254 251.34237288 -14 250 C-14.33 249.34 -14.66 248.68 -15 248 C-17.02463255 247.34786708 -17.02463255 247.34786708 -19 247 C-19.495 244.525 -19.495 244.525 -20 242 C-20.66 242 -21.32 242 -22 242 C-22 240.68 -22 239.36 -22 238 C-22.66 238.33 -23.32 238.66 -24 239 C-31.30434783 239.23188406 -31.30434783 239.23188406 -35 238 C-35 237.34 -35 236.68 -35 236 C-35.99 235.67 -36.98 235.34 -38 235 C-38 234.34 -38 233.68 -38 233 C-38.639375 232.814375 -39.27875 232.62875 -39.9375 232.4375 C-42 231 -42 231 -42.75 227.375 C-42.8325 226.26125 -42.915 225.1475 -43 224 C-43.886875 224.061875 -44.77375 224.12375 -45.6875 224.1875 C-50.59615896 223.90965138 -52.89618163 222.10381837 -56.3125 218.6875 C-58.30049843 215.52142843 -58.34145336 213.67062366 -58 210 C-58.61488281 210.01160156 -59.22976562 210.02320313 -59.86328125 210.03515625 C-60.67152344 210.04417969 -61.47976562 210.05320312 -62.3125 210.0625 C-63.11300781 210.07410156 -63.91351563 210.08570313 -64.73828125 210.09765625 C-67 210 -67 210 -70 209 C-70 208.34 -70 207.68 -70 207 C-70.66 207 -71.32 207 -72 207 C-72 206.34 -72 205.68 -72 205 C-72.99 204.67 -73.98 204.34 -75 204 C-75 203.01 -75 202.02 -75 201 C-75.66 201 -76.32 201 -77 201 C-77.33 197.37 -77.66 193.74 -78 190 C-78.99 189.67 -79.98 189.34 -81 189 C-81 188.34 -81 187.68 -81 187 C-82.65 186.67 -84.3 186.34 -86 186 C-86 185.34 -86 184.68 -86 184 C-87.1446875 183.814375 -87.1446875 183.814375 -88.3125 183.625 C-91 183 -91 183 -94 181 C-94 181.99 -94 182.98 -94 184 C-94.66 184 -95.32 184 -96 184 C-96 184.66 -96 185.32 -96 186 C-97.65 186 -99.3 186 -101 186 C-101 185.34 -101 184.68 -101 184 C-102.98 183.67 -104.96 183.34 -107 183 C-107 182.34 -107 181.68 -107 181 C-107.7734375 180.814375 -107.7734375 180.814375 -108.5625 180.625 C-111.72702351 179.81358372 -114.86124985 178.9054087 -118 178 C-118 177.34 -118 176.68 -118 176 C-119.98 175.67 -121.96 175.34 -124 175 C-124 174.34 -124 173.68 -124 173 C-125.65 173 -127.3 173 -129 173 C-129.33 172.01 -129.66 171.02 -130 170 C-130.66 170 -131.32 170 -132 170 C-132 168.68 -132 167.36 -132 166 C-131.34 166 -130.68 166 -130 166 C-129.505 162.04 -129.505 162.04 -129 158 C-128.34 158 -127.68 158 -127 158 C-126.67 156.02 -126.34 154.04 -126 152 C-125.34 152 -124.68 152 -124 152 C-123.67 150.02 -123.34 148.04 -123 146 C-122.34 146 -121.68 146 -121 146 C-120.505 142.04 -120.505 142.04 -120 138 C-119.34 138 -118.68 138 -118 138 C-117.67 136.02 -117.34 134.04 -117 132 C-116.34 132 -115.68 132 -115 132 C-114.505 129.03 -114.505 129.03 -114 126 C-113.34 126 -112.68 126 -112 126 C-112.061875 125.29875 -112.12375 124.5975 -112.1875 123.875 C-111.95743899 120.34739788 -110.70799432 118.06015649 -109 115 C-108.34 115 -107.68 115 -107 115 C-106.67 113.02 -106.34 111.04 -106 109 C-105.34 109 -104.68 109 -104 109 C-103.67 106.36 -103.34 103.72 -103 101 C-102.34 101 -101.68 101 -101 101 C-100.67 99.02 -100.34 97.04 -100 95 C-99.34 95 -98.68 95 -98 95 C-97.67 93.02 -97.34 91.04 -97 89 C-92.98195309 88.15901344 -89.98196457 87.94595055 -86 89 C-86 89.66 -86 90.32 -86 91 C-83.03 91.495 -83.03 91.495 -80 92 C-80 92.66 -80 93.32 -80 94 C-77.69 94.33 -75.38 94.66 -73 95 C-73 95.66 -73 96.32 -73 97 C-72.175 97.061875 -71.35 97.12375 -70.5 97.1875 C-65.99647063 98.23296217 -62.77342647 100.40457215 -59 103 C-59.875 109.875 -59.875 109.875 -61 111 C-60.34 111.33 -59.68 111.66 -59 112 C-59 112.66 -59 113.32 -59 114 C-56.68715544 113.85973717 -54.37472409 113.71264442 -52.0625 113.5625 C-50.77472656 113.48128906 -49.48695313 113.40007812 -48.16015625 113.31640625 C-45.13976043 113.35080812 -45.13976043 113.35080812 -44 112 C-42.48530552 111.76807135 -40.96245438 111.58784762 -39.4375 111.4375 C-38.61121094 111.35371094 -37.78492188 111.26992187 -36.93359375 111.18359375 C-36.29550781 111.12300781 -35.65742188 111.06242187 -35 111 C-35.33 110.34 -35.66 109.68 -36 109 C-35.67 108.34 -35.34 107.68 -35 107 C-35.9590625 106.62875 -35.9590625 106.62875 -36.9375 106.25 C-39 105 -39 105 -39.75 102.875 C-39.8325 102.25625 -39.915 101.6375 -40 101 C-40.66 101 -41.32 101 -42 101 C-42.33 99.02 -42.66 97.04 -43 95 C-43.66 95 -44.32 95 -45 95 C-45.33 93.02 -45.66 91.04 -46 89 C-46.66 89 -47.32 89 -48 89 C-48.495 84.545 -48.495 84.545 -49 80 C-49.66 80 -50.32 80 -51 80 C-51.33 76.37 -51.66 72.74 -52 69 C-52.66 69 -53.32 69 -54 69 C-55.03590199 63.94997778 -55.10251672 59.12583611 -55 54 C-55.66 54 -56.32 54 -57 54 C-57 43.44 -57 32.88 -57 22 C-50.73 22 -44.46 22 -38 22 C-38 21.34 -38 20.68 -38 20 C-34.04 19.67 -30.08 19.34 -26 19 C-26 18.34 -26 17.68 -26 17 C-24.39125 16.566875 -24.39125 16.566875 -22.75 16.125 C-19.18205 15.17134117 -19.18205 15.17134117 -16.75 13.875 C-15 13 -15 13 -12 13 C-11.67 12.01 -11.34 11.02 -11 10 C-10.34 10 -9.68 10 -9 10 C-9 9.34 -9 8.68 -9 8 C-8.01 8 -7.02 8 -6 8 C-6 7.34 -6 6.68 -6 6 C-4.34997172 4.64613064 -2.6825613 3.31321858 -1 2 C-0.67 1.34 -0.34 0.68 0 0 Z M1 9 C1 9.66 1 10.32 1 11 C0.01 11.33 -0.98 11.66 -2 12 C-2 12.66 -2 13.32 -2 14 C-2.66 14 -3.32 14 -4 14 C-4 14.66 -4 15.32 -4 16 C-5.32 16.33 -6.64 16.66 -8 17 C-8 17.66 -8 18.32 -8 19 C-9.65 19.33 -11.3 19.66 -13 20 C-13 20.66 -13 21.32 -13 22 C-14.051875 22.12375 -15.10375 22.2475 -16.1875 22.375 C-19.49886041 22.91784597 -21.94468384 23.71355109 -25 25 C-26.65919896 25.36871088 -28.3247643 25.71281674 -30 26 C-30 26.66 -30 27.32 -30 28 C-40.395 28.495 -40.395 28.495 -51 29 C-51 31.64 -51 34.28 -51 37 C-50.34 37 -49.68 37 -49 37 C-49.33 42.61 -49.66 48.22 -50 54 C-49.34 54 -48.68 54 -48 54 C-48 56.64 -48 59.28 -48 62 C-47.34 62 -46.68 62 -46 62 C-46.020625 63.051875 -46.04125 64.10375 -46.0625 65.1875 C-46.01103198 68.32704904 -45.73482813 70.96883396 -45 74 C-44.34 74 -43.68 74 -43 74 C-42.67 76.97 -42.34 79.94 -42 83 C-41.34 83 -40.68 83 -40 83 C-39.67 85.64 -39.34 88.28 -39 91 C-38.34 91 -37.68 91 -37 91 C-36.87625 91.969375 -36.7525 92.93875 -36.625 93.9375 C-36.315625 95.4534375 -36.315625 95.4534375 -36 97 C-35.34 97.33 -34.68 97.66 -34 98 C-32.25160484 100.65756064 -31.00872518 102.97382445 -30 106 C-29.34 106 -28.68 106 -28 106 C-27.67 106.99 -27.34 107.98 -27 109 C-23.535 108.505 -23.535 108.505 -20 108 C-20 107.34 -20 106.68 -20 106 C-8 106 -8 106 -4.875 107.5625 C-0.26608525 109.71131864 4.1248831 108.81415433 9 108 C9 107.34 9 106.68 9 106 C13.95 106 18.9 106 24 106 C24 106.66 24 107.32 24 108 C26.31 108.33 28.62 108.66 31 109 C30.67 108.01 30.34 107.02 30 106 C30.639375 105.7525 31.27875 105.505 31.9375 105.25 C34.18741541 104.18437567 34.18741541 104.18437567 34.75 101.875 C34.8325 101.25625 34.915 100.6375 35 100 C35.66 100 36.32 100 37 100 C37.33 98.35 37.66 96.7 38 95 C38.66 95 39.32 95 40 95 C40.33 93.02 40.66 91.04 41 89 C41.66 89 42.32 89 43 89 C43.33 86.69 43.66 84.38 44 82 C44.66 82 45.32 82 46 82 C46.12117188 81.43152344 46.24234375 80.86304688 46.3671875 80.27734375 C47.16850187 76.58513368 48.00394755 72.98728012 49.125 69.375 C50.05507821 65.78755548 50.15060863 62.68991145 50 59 C50.66 59 51.32 59 52 59 C52 54.71 52 50.42 52 46 C52.66 45.67 53.32 45.34 54 45 C53.67 39.72 53.34 34.44 53 29 C49.6796875 29.04882812 49.6796875 29.04882812 46.359375 29.09765625 C44.08252177 29.00341564 42.19419384 28.57552625 40 28 C38.00036972 27.96154557 35.99948367 27.95455719 34 28 C34 27.34 34 26.68 34 26 C30.37 25.67 26.74 25.34 23 25 C23 24.34 23 23.68 23 23 C21.02 22.67 19.04 22.34 17 22 C17 21.34 17 20.68 17 20 C15.35 19.67 13.7 19.34 12 19 C12 18.34 12 17.68 12 17 C11.01 16.67 10.02 16.34 9 16 C8.505 15.01 8.505 15.01 8 14 C7.34 14 6.68 14 6 14 C5.505 12.515 5.505 12.515 5 11 C4.34 11 3.68 11 3 11 C3 10.34 3 9.68 3 9 C2.34 9 1.68 9 1 9 Z M-92 97 C-92 97.99 -92 98.98 -92 100 C-92.66 100 -93.32 100 -94 100 C-94.33 102.31 -94.66 104.62 -95 107 C-95.66 107 -96.32 107 -97 107 C-99.29045014 111.81209901 -99.29045014 111.81209901 -100 117 C-100.66 117.33 -101.32 117.66 -102 118 C-102.165 118.825 -102.33 119.65 -102.5 120.5 C-102.665 121.325 -102.83 122.15 -103 123 C-103.66 123.33 -104.32 123.66 -105 124 C-105.65772428 127.02934491 -105.65772428 127.02934491 -106 130 C-106.66 130 -107.32 130 -108 130 C-108.67305018 131.60149886 -109.33822227 133.20631029 -110 134.8125 C-110.37125 135.70582031 -110.7425 136.59914062 -111.125 137.51953125 C-112.16633237 140.0331433 -112.16633237 140.0331433 -112 143 C-112.66 143 -113.32 143 -114 143 C-114.33 145.31 -114.66 147.62 -115 150 C-115.66 150 -116.32 150 -117 150 C-117.33 151.98 -117.66 153.96 -118 156 C-118.66 156 -119.32 156 -120 156 C-120.33 158.64 -120.66 161.28 -121 164 C-122.485 164.495 -122.485 164.495 -124 165 C-123.67 165.66 -123.34 166.32 -123 167 C-122.01 167 -121.02 167 -120 167 C-120 167.66 -120 168.32 -120 169 C-119.28714844 169.25394531 -118.57429688 169.50789063 -117.83984375 169.76953125 C-109.07248076 172.92011795 -109.07248076 172.92011795 -105.0625 174.75 C-101.93406485 176.25193133 -101.93406485 176.25193133 -98 176 C-97.32694982 174.39850114 -96.66177773 172.79368971 -96 171.1875 C-95.62875 170.29417969 -95.2575 169.40085937 -94.875 168.48046875 C-93.83366763 165.9668567 -93.83366763 165.9668567 -94 163 C-93.34 163 -92.68 163 -92 163 C-91.67 161.02 -91.34 159.04 -91 157 C-90.34 157 -89.68 157 -89 157 C-88.505 155.9275 -88.01 154.855 -87.5 153.75 C-87.2215625 153.14671875 -86.943125 152.5434375 -86.65625 151.921875 C-85.78457076 149.70757164 -85.78457076 149.70757164 -86 146 C-85.34 146 -84.68 146 -84 146 C-83.67 144.02 -83.34 142.04 -83 140 C-82.34 140 -81.68 140 -81 140 C-80.67 138.02 -80.34 136.04 -80 134 C-79.34 134 -78.68 134 -78 134 C-77.67 131.36 -77.34 128.72 -77 126 C-76.34 126 -75.68 126 -75 126 C-74.67 124.02 -74.34 122.04 -74 120 C-73.34 120 -72.68 120 -72 120 C-71.67 118.02 -71.34 116.04 -71 114 C-70.34 114 -69.68 114 -69 114 C-69 112.35 -69 110.7 -69 109 C-68.01 108.67 -67.02 108.34 -66 108 C-67.28264727 105.43470546 -68.22772349 105.33500137 -70.875 104.375 C-71.57367188 104.11460937 -72.27234375 103.85421875 -72.9921875 103.5859375 C-75.13138532 102.85992828 -75.13138532 102.85992828 -78 103 C-78 102.34 -78 101.68 -78 101 C-79.98 100.67 -81.96 100.34 -84 100 C-84 99.34 -84 98.68 -84 98 C-86.64 97.67 -89.28 97.34 -92 97 Z M90 98 C90 98.66 90 99.32 90 100 C87.36 100.33 84.72 100.66 82 101 C82 101.66 82 102.32 82 103 C80.02 103.33 78.04 103.66 76 104 C76 104.66 76 105.32 76 106 C74.68 106.33 73.36 106.66 72 107 C72.33 108.65 72.66 110.3 73 112 C73.66 112 74.32 112 75 112 C75.33 113.98 75.66 115.96 76 118 C76.66 118 77.32 118 78 118 C78.103125 118.825 78.20625 119.65 78.3125 120.5 C79.11646056 124.59289012 80.46352158 128.12540225 82 132 C82.66 132 83.32 132 84 132 C84.33 133.98 84.66 135.96 85 138 C85.66 138 86.32 138 87 138 C87.33 139.98 87.66 141.96 88 144 C88.66 144 89.32 144 90 144 C90.33 146.64 90.66 149.28 91 152 C91.66 152 92.32 152 93 152 C93 152.99 93 153.98 93 155 C93.66 155 94.32 155 95 155 C94.67 155.99 94.34 156.98 94 158 C94.66 158 95.32 158 96 158 C96 158.99 96 159.98 96 161 C96.66 161 97.32 161 98 161 C98.33 163.64 98.66 166.28 99 169 C99.66 169 100.32 169 101 169 C101.33 170.98 101.66 172.96 102 175 C105.39991451 176.09997234 106.68513317 176.14431397 110 174.625 C110.99 174.08875 111.98 173.5525 113 173 C115.875 172.3125 115.875 172.3125 118 172 C118 171.34 118 170.68 118 170 C120.97 169.505 120.97 169.505 124 169 C124 168.34 124 167.68 124 167 C124.99 167 125.98 167 127 167 C126.505 162.545 126.505 162.545 126 158 C125.34 158 124.68 158 124 158 C124 157.01 124 156.02 124 155 C123.34 155 122.68 155 122 155 C121.505 152.03 121.505 152.03 121 149 C120.34 149 119.68 149 119 149 C118.505 145.04 118.505 145.04 118 141 C117.34 141 116.68 141 116 141 C115.505 138.03 115.505 138.03 115 135 C114.34 135 113.68 135 113 135 C112.505 132.03 112.505 132.03 112 129 C111.34 129 110.68 129 110 129 C109.505 125.04 109.505 125.04 109 121 C108.34 121 107.68 121 107 121 C106.814375 120.1646875 106.814375 120.1646875 106.625 119.3125 C105.94023145 116.77885636 105.00866237 114.42078968 104 112 C103.34 112 102.68 112 102 112 C102.33 111.01 102.66 110.02 103 109 C102.34 109 101.68 109 101 109 C101 108.01 101 107.02 101 106 C100.34 106 99.68 106 99 106 C98.67 103.36 98.34 100.72 98 98 C94.71303767 97.20046862 93.28976808 96.90341064 90 98 Z M-13 112 C-13 112.66 -13 113.32 -13 114 C-13.99580078 114.07347656 -13.99580078 114.07347656 -15.01171875 114.1484375 C-19.73533155 114.54839304 -23.63696805 115.06087469 -28 117 C-29.9924325 117.37593066 -31.9918674 117.71979545 -34 118 C-34 118.66 -34 119.32 -34 120 C-43.57 120 -53.14 120 -63 120 C-63 119.34 -63 118.68 -63 118 C-63.66 118 -64.32 118 -65 118 C-65.33 119.98 -65.66 121.96 -66 124 C-66.66 124 -67.32 124 -68 124 C-68.33 126.64 -68.66 129.28 -69 132 C-69.66 132 -70.32 132 -71 132 C-71.33 133.98 -71.66 135.96 -72 138 C-72.66 138 -73.32 138 -74 138 C-74 138.99 -74 139.98 -74 141 C-74.66 141.33 -75.32 141.66 -76 142 C-75.67 142.66 -75.34 143.32 -75 144 C-75.66 144 -76.32 144 -77 144 C-77 144.99 -77 145.98 -77 147 C-77.66 147 -78.32 147 -79 147 C-79.33 149.64 -79.66 152.28 -80 155 C-80.66 155 -81.32 155 -82 155 C-82.33 156.98 -82.66 158.96 -83 161 C-83.66 161 -84.32 161 -85 161 C-85.33 163.64 -85.66 166.28 -86 169 C-86.66 169 -87.32 169 -88 169 C-88.33 170.98 -88.66 172.96 -89 175 C-88.01 175 -87.02 175 -86 175 C-85.505 176.485 -85.505 176.485 -85 178 C-84.01 178 -83.02 178 -82 178 C-82 178.66 -82 179.32 -82 180 C-80.9275 180.495 -79.855 180.99 -78.75 181.5 C-78.14671875 181.7784375 -77.5434375 182.056875 -76.921875 182.34375 C-74.70757164 183.21542924 -74.70757164 183.21542924 -71 183 C-68.91713139 181.26039745 -67.10878823 179.57648371 -65.25 177.625 C-64.74339844 177.11710937 -64.23679687 176.60921875 -63.71484375 176.0859375 C-60.87713061 173.50942454 -60.87713061 173.50942454 -60 170 C-57.525 169.505 -57.525 169.505 -55 169 C-55 168.34 -55 167.68 -55 167 C-53.24929483 167.11470137 -51.49942464 167.24219028 -49.75 167.375 C-48.28820312 167.47941406 -48.28820312 167.47941406 -46.796875 167.5859375 C-42.54406201 168.21554389 -39.74903295 169.68056252 -37 173 C-35.78670982 175.61132003 -34.93959149 178.27071044 -34 181 C-31.03 181 -28.06 181 -25 181 C-25 181.66 -25 182.32 -25 183 C-22.36107824 184.78305524 -20.02821137 185.99059621 -17 187 C-16.505 191.455 -16.505 191.455 -16 196 C-14.9275 196.12375 -13.855 196.2475 -12.75 196.375 C-9.6168129 196.89719785 -7.61350274 197.29117129 -5 199 C-4.67 199.66 -4.34 200.32 -4 201 C-3.34 201 -2.68 201 -2 201 C-2 201.99 -2 202.98 -2 204 C-1.34 204 -0.68 204 0 204 C0 205.98 0 207.96 0 210 C3.3 210 6.6 210 10 210 C10 210.66 10 211.32 10 212 C10.99 212.825 11.98 213.65 13 214.5 C13.99 215.325 14.98 216.15 16 217 C16 217.66 16 218.32 16 219 C16.66 219 17.32 219 18 219 C18.309375 219.804375 18.309375 219.804375 18.625 220.625 C21.00771065 224.74059112 23.60355109 228.25571041 28.2890625 229.7109375 C32.79452661 230.50337271 32.79452661 230.50337271 36.76953125 228.68359375 C38.29503178 226.9438742 38.29503178 226.9438742 38 224 C38.66 224 39.32 224 40 224 C40 223.01 40 222.02 40 221 C39.34 221 38.68 221 38 221 C37.9071875 219.88625 37.9071875 219.88625 37.8125 218.75 C36.74290323 215.12982633 34.99140387 214.22616102 32 212 C30.9171875 210.63875 30.9171875 210.63875 29.8125 209.25 C29.214375 208.5075 28.61625 207.765 28 207 C27.34 207 26.68 207 26 207 C26 206.34 26 205.68 26 205 C25.34 204.67 24.68 204.34 24 204 C24 202.68 24 201.36 24 200 C25.65 199.34 27.3 198.68 29 198 C29.33 198.99 29.66 199.98 30 201 C30.66 201 31.32 201 32 201 C32.33 201.99 32.66 202.98 33 204 C33.66 204 34.32 204 35 204 C35.33 204.99 35.66 205.98 36 207 C36.66 207 37.32 207 38 207 C38.33 207.99 38.66 208.98 39 210 C39.66 210 40.32 210 41 210 C41.33 210.99 41.66 211.98 42 213 C42.99 213 43.98 213 45 213 C45 213.66 45 214.32 45 215 C47.31 215 49.62 215 52 215 C52 214.34 52 213.68 52 213 C52.99 212.67 53.98 212.34 55 212 C55.66854739 206.78526215 55.66854739 206.78526215 53.734375 202.1328125 C52.21876705 200.59513259 50.7825808 199.21917444 49 198 C48.34 198 47.68 198 47 198 C46.67 197.01 46.34 196.02 46 195 C45.34 195 44.68 195 44 195 C42.03698408 191.49461443 41.04097612 187.86648272 40 184 C41.36125 184.4640625 41.36125 184.4640625 42.75 184.9375 C45.8128897 186.01595279 45.8128897 186.01595279 48.3125 186.4375 C48.869375 186.623125 49.42625 186.80875 50 187 C50.33 187.99 50.66 188.98 51 190 C51.66 190 52.32 190 53 190 C53 190.66 53 191.32 53 192 C54.65002828 193.35386936 56.3174387 194.68678142 58 196 C58.33 196.66 58.66 197.32 59 198 C59.66 198 60.32 198 61 198 C61.33 198.99 61.66 199.98 62 201 C64.60242414 202.64820195 65.86248779 203 69 203 C69 202.34 69 201.68 69 201 C69.61875 200.9175 70.2375 200.835 70.875 200.75 C73.14583333 200.1875 73.14583333 200.1875 74.25 198.125 C75.16641006 195.90408309 75.16641006 195.90408309 75 193 C74.34 193 73.68 193 73 193 C72.89558594 192.40703125 72.79117188 191.8140625 72.68359375 191.203125 C71.8994359 188.67589628 70.94945476 187.5769782 69.0625 185.75 C68.53785156 185.22921875 68.01320313 184.7084375 67.47265625 184.171875 C66.05284165 182.792444 66.05284165 182.792444 64 183 C63.67 181.68 63.34 180.36 63 179 C61.35 178.67 59.7 178.34 58 178 C57.67 177.01 57.34 176.02 57 175 C56.34 175 55.68 175 55 175 C54.67 174.01 54.34 173.02 54 172 C53.34 172 52.68 172 52 172 C52 171.34 52 170.68 52 170 C50.34928604 168.97388051 48.68029994 167.97691857 47 167 C46 166 45 165 44 164 C43.01 163.67 42.02 163.34 41 163 C40.67 162.34 40.34 161.68 40 161 C37.06295544 158.9904432 35.60777515 158 32 158 C31.67 157.01 31.34 156.02 31 155 C28.07920195 152.92469613 26.62453269 152 23 152 C22.67 151.34 22.34 150.68 22 150 C20.515 149.505 20.515 149.505 19 149 C18.67 148.34 18.34 147.68 18 147 C14.52674819 145.8422494 11.63932552 145.93133348 8 146 C7.67 145.34 7.34 144.68 7 144 C7 144.66 7 145.32 7 146 C6.41992188 145.98839844 5.83984375 145.97679687 5.2421875 145.96484375 C0.7001754 145.91237826 -3.52713569 146.08248937 -8 147 C-8 147.66 -8 148.32 -8 149 C-12.455 149.495 -12.455 149.495 -17 150 C-17 150.66 -17 151.32 -17 152 C-21.39570794 152.0872253 -25.79119271 152.14046869 -30.1875 152.1875 C-32.05631836 152.22520508 -32.05631836 152.22520508 -33.96289062 152.26367188 C-35.16494141 152.27333984 -36.36699219 152.28300781 -37.60546875 152.29296875 C-39.26292114 152.31653442 -39.26292114 152.31653442 -40.95385742 152.34057617 C-44.36673142 151.95899733 -46.1739713 150.88164215 -49 149 C-49.66 149 -50.32 149 -51 149 C-51 144.38 -51 139.76 -51 135 C-50.34 134.67 -49.68 134.34 -49 134 C-49 133.34 -49 132.68 -49 132 C-46.34771188 130.92474806 -43.71631546 129.90543849 -41 129 C-40.67 128.34 -40.34 127.68 -40 127 C-37.51937474 125.58249985 -35.05587775 124.26762367 -32.5 123 C-31.77619141 122.63841797 -31.05238281 122.27683594 -30.30664062 121.90429688 C-25.25382678 119.4480051 -20.59176978 117.79882425 -15 117 C-15 116.34 -15 115.68 -15 115 C-11.535 114.505 -11.535 114.505 -8 114 C-8.495 113.01 -8.495 113.01 -9 112 C-10.32 112 -11.64 112 -13 112 Z M16 112 C16 112.66 16 113.32 16 114 C11.545 114.495 11.545 114.495 7 115 C7 115.66 7 116.32 7 117 C2.545 117.495 2.545 117.495 -2 118 C-2 118.66 -2 119.32 -2 120 C-4.64 120.33 -7.28 120.66 -10 121 C-10 121.66 -10 122.32 -10 123 C-14.455 123.495 -14.455 123.495 -19 124 C-19 124.66 -19 125.32 -19 126 C-20.98 126.33 -22.96 126.66 -25 127 C-25 127.66 -25 128.32 -25 129 C-26.98 129.33 -28.96 129.66 -31 130 C-31 130.66 -31 131.32 -31 132 C-31.55171875 132.11214844 -32.1034375 132.22429687 -32.671875 132.33984375 C-35.40065211 133.11360773 -37.72772943 134.26817694 -40.25 135.5625 C-41.58804688 136.24505859 -41.58804688 136.24505859 -42.953125 136.94140625 C-43.62859375 137.29074219 -44.3040625 137.64007813 -45 138 C-45 139.98 -45 141.96 -45 144 C-44.01 144 -43.02 144 -42 144 C-42 144.66 -42 145.32 -42 146 C-35.73 146 -29.46 146 -23 146 C-23 145.34 -23 144.68 -23 144 C-20.03 143.67 -17.06 143.34 -14 143 C-14 142.34 -14 141.68 -14 141 C-10.37 140.67 -6.74 140.34 -3 140 C-3 139.34 -3 138.68 -3 138 C3.27 138 9.54 138 16 138 C16 138.66 16 139.32 16 140 C17.98 140.33 19.96 140.66 22 141 C22 141.66 22 142.32 22 143 C23.65 143.33 25.3 143.66 27 144 C27 144.66 27 145.32 27 146 C28.98 146.33 30.96 146.66 33 147 C33 147.66 33 148.32 33 149 C35.85254222 151.12282212 38.48002666 152.80356563 41.8125 154.0625 C42.534375 154.371875 43.25625 154.68125 44 155 C44.33 155.99 44.66 156.98 45 158 C47.44390412 159.62926942 49.97552272 160.98686585 52.5625 162.375 C55 164 55 164 57 166.625 C59.37969736 169.45089062 60.50577478 169.35632693 64 170 C64.40992188 170.84111328 64.40992188 170.84111328 64.828125 171.69921875 C66.41284268 174.81054779 68.63062064 176.81957909 71.125 179.25 C72.49011719 180.58804688 72.49011719 180.58804688 73.8828125 181.953125 C74.58148438 182.62859375 75.28015625 183.3040625 76 184 C79.3 182.68 82.6 181.36 86 180 C86 179.34 86 178.68 86 178 C86.556875 177.9175 87.11375 177.835 87.6875 177.75 C90.69714206 176.77389987 92.62154752 175.04811186 95 173 C94.34 173 93.68 173 93 173 C92.67 170.69 92.34 168.38 92 166 C91.34 166 90.68 166 90 166 C89.67 164.02 89.34 162.04 89 160 C88.34 160 87.68 160 87 160 C86.67 157.69 86.34 155.38 86 153 C85.34 153 84.68 153 84 153 C83.67 150.69 83.34 148.38 83 146 C82.34 146 81.68 146 81 146 C80.505 143.03 80.505 143.03 80 140 C79.34 140 78.68 140 78 140 C77.87625 139.484375 77.7525 138.96875 77.625 138.4375 C76.81358372 135.27297649 75.9054087 132.13875015 75 129 C74.34 129 73.68 129 73 129 C72.505 126.03 72.505 126.03 72 123 C71.34 123 70.68 123 70 123 C69.505 120.525 69.505 120.525 69 118 C68.67 118.66 68.34 119.32 68 120 C58.76 120 49.52 120 40 120 C40 119.34 40 118.68 40 118 C39.27554688 117.87882812 38.55109375 117.75765625 37.8046875 117.6328125 C29.64145234 116.21785174 29.64145234 116.21785174 25.6875 114.875 C22.66604076 113.89126909 20.15740392 113.84964743 17 114 C16.505 113.01 16.505 113.01 16 112 Z M-57.6484375 177.671875 C-58.50308594 178.70054687 -58.50308594 178.70054687 -59.375 179.75 C-61.45883682 182.21793386 -63.53386287 184.5870586 -65.875 186.8125 C-68.18497133 189.19041166 -68.93919959 190.72805539 -69.09765625 194.04296875 C-69.08605469 194.75066406 -69.07445312 195.45835937 -69.0625 196.1875 C-69.041875 197.445625 -69.02125 198.70375 -69 200 C-67.68 200.33 -66.36 200.66 -65 201 C-65 201.66 -65 202.32 -65 203 C-63.35 203 -61.7 203 -60 203 C-60 202.34 -60 201.68 -60 201 C-59.40525879 200.89421631 -58.81051758 200.78843262 -58.19775391 200.67944336 C-55.68465633 199.90251039 -54.65405234 199.00292339 -52.8359375 197.12890625 C-52.27132812 196.55462891 -51.70671875 195.98035156 -51.125 195.38867188 C-50.5475 194.78603516 -49.97 194.18339844 -49.375 193.5625 C-48.78976563 192.96373047 -48.20453125 192.36496094 -47.6015625 191.74804688 C-46.51655894 190.63691364 -45.43466672 189.52272754 -44.35693359 188.40454102 C-43.24958606 187.25834268 -42.12694037 186.12694037 -41 185 C-40.83322718 181.41656024 -40.83322718 181.41656024 -41 178 C-41.66 178 -42.32 178 -43 178 C-43.33 177.01 -43.66 176.02 -44 175 C-45.43739513 174.97287934 -46.87493863 174.95354933 -48.3125 174.9375 C-49.11300781 174.92589844 -49.91351563 174.91429687 -50.73828125 174.90234375 C-53.7510694 175.03242959 -55.51037023 175.50340867 -57.6484375 177.671875 Z M-37 190 C-37 190.66 -37 191.32 -37 192 C-37.99 192.33 -38.98 192.66 -40 193 C-40 193.66 -40 194.32 -40 195 C-40.87398437 195.38865234 -40.87398437 195.38865234 -41.765625 195.78515625 C-44.16343838 197.08886248 -45.81756794 198.51745533 -47.75 200.4375 C-48.36359375 201.03433594 -48.9771875 201.63117188 -49.609375 202.24609375 C-51.31064194 204.01874136 -51.31064194 204.01874136 -51 207 C-51.66 207.33 -52.32 207.66 -53 208 C-53 208.66 -53 209.32 -53 210 C-52.34 210 -51.68 210 -51 210 C-50.814375 211.2065625 -50.814375 211.2065625 -50.625 212.4375 C-50.41875 213.283125 -50.2125 214.12875 -50 215 C-47.01002175 216.49498913 -44.29957225 216.11577446 -41 216 C-37.24980832 214.74993611 -36.42481772 213.06668123 -34 210 C-32.33333333 208.66666667 -30.66666667 207.33333333 -29 206 C-25.67658017 202.53299597 -25.67658017 202.53299597 -25 198 C-24.34 198 -23.68 198 -23 198 C-23 196.35 -23 194.7 -23 193 C-23.66 193 -24.32 193 -25 193 C-25.33 191.68 -25.66 190.36 -26 189 C-30.29299643 187.73735399 -32.87831311 188.37049588 -37 190 Z M-16 202 C-16 202.66 -16 203.32 -16 204 C-16.61875 204.0825 -17.2375 204.165 -17.875 204.25 C-20.17972859 204.79394438 -20.17972859 204.79394438 -21.0625 207 C-21.371875 207.66 -21.68125 208.32 -22 209 C-22.99 209.33 -23.98 209.66 -25 210 C-25 210.66 -25 211.32 -25 212 C-25.99 212.33 -26.98 212.66 -28 213 C-28 213.66 -28 214.32 -28 215 C-28.99 215.33 -29.98 215.66 -31 216 C-31 216.66 -31 217.32 -31 218 C-31.99 218.33 -32.98 218.66 -34 219 C-34 219.66 -34 220.32 -34 221 C-34.66 221 -35.32 221 -36 221 C-36 222.98 -36 224.96 -36 227 C-35.34 227 -34.68 227 -34 227 C-33.67 227.99 -33.34 228.98 -33 230 C-32.34 230 -31.68 230 -31 230 C-31 230.66 -31 231.32 -31 232 C-28.24791373 232.45123642 -28.24791373 232.45123642 -25 232 C-22.75648641 230.24853639 -21.0221765 228.68714837 -19.125 226.625 C-18.62742187 226.11710937 -18.12984375 225.60921875 -17.6171875 225.0859375 C-14.84495899 222.49321538 -14.84495899 222.49321538 -14 219 C-13.01 218.67 -12.02 218.34 -11 218 C-11 217.34 -11 216.68 -11 216 C-10.01 215.67 -9.02 215.34 -8 215 C-8 214.01 -8 213.02 -8 212 C-7.34 212 -6.68 212 -6 212 C-6 211.01 -6 210.02 -6 209 C-6.66 209 -7.32 209 -8 209 C-8.33 207.35 -8.66 205.7 -9 204 C-10.65 204 -12.3 204 -14 204 C-14 203.34 -14 202.68 -14 202 C-14.66 202 -15.32 202 -16 202 Z M-11.81640625 227.1875 C-13.44663307 229.68395295 -13.72083957 232.06881551 -14 235 C-14.66 235.33 -15.32 235.66 -16 236 C-15.34 236 -14.68 236 -14 236 C-13.814375 237.2065625 -13.814375 237.2065625 -13.625 238.4375 C-13.41875 239.283125 -13.2125 240.12875 -13 241 C-9.74209798 242.62895101 -6.50966197 242.67418611 -3 242 C-0.45850004 240.37938489 1.40014596 238.32204079 3.375 236.0625 C8.92478814 230.03760593 8.92478814 230.03760593 11 229 C11 226.36 11 223.72 11 221 C10.34 221 9.68 221 9 221 C8.67 220.01 8.34 219.02 8 218 C-1.1906933 217.26474454 -5.97117485 220.14285749 -11.81640625 227.1875 Z M16 230 C15.67 231.65 15.34 233.3 15 235 C14.01 235.33 13.02 235.66 12 236 C12 236.66 12 237.32 12 238 C10.02 238.99 10.02 238.99 8 240 C8 240.66 8 241.32 8 242 C9.65 242 11.3 242 13 242 C13.33 242.66 13.66 243.32 14 244 C14 243.34 14 242.68 14 242 C15.98 241.67 17.96 241.34 20 241 C20.92817192 237.37169157 21.26901295 235.58926645 19.6875 232.125 C19.130625 231.42375 18.57375 230.7225 18 230 C17.34 230 16.68 230 16 230 Z " fill="#D0020B" transform="translate(201,70)"/>
<path d="M0 0 C1.8125 1.4375 1.8125 1.4375 3 3 C3 3.66 3 4.32 3 5 C3.99 5.33 4.98 5.66 6 6 C5.91820449 8.78104751 5.50092354 10.49644002 3.515625 12.4921875 C2.27644086 13.51424963 1.02732935 14.5243718 -0.23046875 15.5234375 C-2.50740337 17.42339619 -4.16684353 19.67800181 -6 22 C-7.66666667 23.33333333 -9.33333333 24.66666667 -11 26 C-11.598125 26.763125 -12.19625 27.52625 -12.8125 28.3125 C-14.73307437 30.6720628 -16.56977585 32.419715 -18.875 34.375 C-22.14900587 37.1673551 -24.95891387 40.09001471 -27.67578125 43.421875 C-29.05809417 45.06923317 -30.3619618 46.60198282 -32 48 C-35 48 -35 48 -36.33203125 46.7421875 C-37.06486328 45.81792969 -37.06486328 45.81792969 -37.8125 44.875 C-40.26182481 41.90499443 -42.81634389 39.17432016 -45.60546875 36.52734375 C-46.24444092 35.91584473 -46.88341309 35.3043457 -47.54174805 34.67431641 C-48.83792658 33.44196914 -50.14533154 32.22131374 -51.46411133 31.01318359 C-55.96888341 26.69058757 -55.96888341 26.69058757 -56.12109375 23.3125 C-54.88452748 20.76181278 -53.61117912 19.14247654 -51.5625 17.1875 C-50.94503906 16.58292969 -50.32757813 15.97835937 -49.69140625 15.35546875 C-48 14 -48 14 -46 14 C-46 14.66 -46 15.32 -46 16 C-45.01 16.33 -44.02 16.66 -43 17 C-43 17.66 -43 18.32 -43 19 C-42.01 19.33 -41.02 19.66 -40 20 C-40 20.66 -40 21.32 -40 22 C-39.01 22.33 -38.02 22.66 -37 23 C-37 23.66 -37 24.32 -37 25 C-33.98968256 25.93423645 -33.13349732 26.04449911 -30 25 C-30 24.34 -30 23.68 -30 23 C-28.33784732 21.66104368 -26.67036393 20.32869858 -25 19 C-24.01 17.7625 -24.01 17.7625 -23 16.5 C-20.90532454 13.88165568 -18.62909541 12.06064235 -16 10 C-15.67 9.34 -15.34 8.68 -15 8 C-14.34 8 -13.68 8 -13 8 C-12.67 7.01 -12.34 6.02 -12 5 C-11.34 5 -10.68 5 -10 5 C-9.67 4.01 -9.34 3.02 -9 2 C-8.34 2 -7.68 2 -7 2 C-7 1.34 -7 0.68 -7 0 C-4.26634878 -1.36682561 -2.89333621 -0.84683011 0 0 Z " fill="#D0020B" transform="translate(228,116)"/>
</svg>
